<svg id="tree" xmlns="http://www.w3.org/2000/svg" viewBox="0 0 199.764 213.05"><g id="leafs"><path fill="#B1D135" d="M22.794 69.817l-1.747.513c-.248 1.081-.575 4.404-5.513 5.13-3.349.493-4.966-.026-6.594-.644-3.073-1.15-3.648-2.179-5.547-4.539l-1.18-1.053-1.509-.062c-.166-.514 7.304-8.577 16.008-4.986 3.657 1.516 4.233 5.262 4.233 5.262s.89.109 1.832.005l1.313-.336.228.817c-.001.001-.683-.163-1.524-.107zM133.845 96.563l.125-1.611c-.821-.546-3.476-1.869-2.52-6.197.647-2.938 1.59-4.116 2.614-5.273 1.927-2.188 2.962-2.34 5.521-3.173l1.246-.648.527-1.232c.48.024 4.817 8.773-.912 14.866-2.412 2.557-5.705 1.853-5.705 1.853s-.371.705-.582 1.519l-.137 1.197-.75-.069c.002-.001.353-.516.573-1.232zM106.906 91.909c-.746-1.149-1.934-2.354-2.277-2.247-1.868.577-7.238 2.916-12.604-4.041-3.628-4.718-4.232-7.647-4.684-10.651-.868-5.705.198-7.486 2.214-12.43.334-.821.73-1.884.573-2.698-.284-1.592-1.458-2.107-1.192-2.398.652-.693 19.436 3.859 21.393 20.295.832 6.913-4.425 11.02-4.425 11.02s.609 1.447 1.569 2.804c.466.667 1.642 1.524 1.648 1.728.093 1.627-1.061 1.056-1.061 1.056s-.35-1.191-1.154-2.438zM56.958 45.8c-.746-1.15-1.925-2.357-2.277-2.248-1.866.581-7.249 2.918-12.604-4.041-3.629-4.721-4.223-7.649-4.673-10.65-.878-5.705.197-7.484 2.215-12.426.324-.825.72-1.893.567-2.71-.277-1.583-1.464-2.103-1.192-2.396.645-.69 19.428 3.858 21.402 20.293.837 6.921-4.442 11.021-4.442 11.021s.612 1.454 1.569 2.807c.476.672 1.651 1.52 1.67 1.732.091 1.627-1.075 1.063-1.075 1.063s-.349-1.205-1.16-2.445zM143.403 70.6c.558-1.062.984-2.494.757-2.708-1.24-1.199-5.342-4.331-2.275-11.435 2.076-4.816 4.081-6.53 6.193-8.169 4.031-3.103 5.842-3.038 10.521-3.607l2.327-.712c1.107-.903 1.007-2.037 1.333-1.95.814.202 5.348 16.618-6.472 25.169-4.97 3.591-10.38 1.294-10.38 1.294s-.864 1.093-1.502 2.415l-.622 2.016c-1.209.771-1.274-.375-1.274-.375s.778-.782 1.394-1.938zM74.331 54.578c-.401-.868-1.115-1.828-1.355-1.785-1.346.215-5.297 1.311-8.331-4.025-2.052-3.624-2.186-5.701-2.202-7.827-.039-4.036.875-5.162 2.746-8.388l.664-1.811c-.037-1.126-.808-1.608-.598-1.776.515-.411 13.077 4.569 12.835 16.134-.1 4.875-4.144 7.193-4.144 7.193s.278 1.06.801 2.096l.99 1.361c-.101 1.131-.856.622-.856.622s-.104-.857-.55-1.794zM99.589 36.539c-.217-1.18-.182-2.68.108-2.821 1.546-.75 6.411-2.486 5.664-10.195-.518-5.216-1.896-7.448-3.415-9.666-2.881-4.191-4.644-4.677-8.907-6.647l-2.001-1.387c-.788-1.195-.322-2.231-.667-2.266-.836-.05-10.174 14.193-1.543 25.933 3.643 4.96 9.503 4.421 9.503 4.421s.479 1.299.691 2.744l-.026 2.118c.91 1.098 1.314.031 1.314.031s-.495-.986-.721-2.265zM77.469 134.146c-1.209-.043-2.661-.393-2.737-.705-.412-1.664-1.091-6.783-8.79-7.664-5.201-.591-7.677.28-10.157 1.307-4.695 1.951-5.549 3.566-8.361 7.334l-1.787 1.673c-1.323.497-2.247-.167-2.354.174-.22.809 11.761 12.913 25.051 6.924 5.592-2.527 6.298-8.365 6.298-8.365s1.377-.208 2.83-.104l2.056.469c1.28-.664.318-1.285.318-1.285s-1.062.277-2.367.242zM131.447 52.381l1.363-1.966c1.45.158 5.745 1.129 8.711-4.751 2.012-3.983 2.042-6.228 1.944-8.503-.161-4.326-1.191-5.478-3.379-8.845l-.812-1.903c-.005-1.208.794-1.757.552-1.926-.573-.423-13.767 5.57-12.898 17.947.364 5.211 4.816 7.498 4.816 7.498s-.244 1.146-.753 2.287l-.983 1.504c.155 1.21.944.624.944.624s.079-.924.495-1.966zM119.833 119.749l.769-2.266c1.439-.247 5.833-.495 7.067-6.965.839-4.383.249-6.549-.469-8.708-1.346-4.115-2.653-4.939-5.684-7.574l-1.305-1.606c-.335-1.161.281-1.908.003-2.004-.667-.249-11.705 9.144-7.463 20.804 1.784 4.908 6.693 5.882 6.693 5.882s.08 1.169-.096 2.407l-.532 1.717c.482 1.12 1.08.34 1.08.34s-.178-.911-.063-2.027zM94.474 102.959l-1.026-1.61c.588-1 2.615-3.827-.744-7.813-2.274-2.706-3.902-3.42-5.599-4.062-3.183-1.223-4.346-.828-7.477-.272l-1.637-.015-1.239-.999c-.479.293-.211 11.762 9.062 14.974 3.912 1.347 6.96-1.182 6.96-1.182s.753.543 1.424 1.265l.797 1.178.744-.484c0-.001-.646-.365-1.265-.98zM22.573 94.764l-1.543-1.12c.161-1.146.995-4.528-3.611-6.972-3.11-1.656-4.889-1.709-6.691-1.678-3.431.051-4.367.859-7.05 2.53l-1.524.604c-.965-.007-1.373-.657-1.526-.465-.346.45 4.186 10.983 13.994 10.509 4.14-.206 6.018-3.685 6.018-3.685l1.792.627 1.179.798c.962-.096.517-.723.517-.723l-1.555-.425zM44.382 127.089c-.958-.019-2.144-.286-2.21-.537-.342-1.347-.935-5.457-7.124-6.101-4.197-.438-6.185.297-8.168 1.138-3.757 1.612-4.433 2.916-6.667 5.973l-1.416 1.354c-1.068.418-1.819-.101-1.894.171-.181.638 9.567 10.28 20.208 5.348 4.478-2.065 4.999-6.773 4.999-6.773s1.099-.181 2.277-.099l1.666.346c1.001-.537.236-1.028.236-1.028s-.857.235-1.907.208zM48.868 69.068l-1.409-1.289c.301-1.126 1.523-4.371-2.762-7.352-2.898-2.016-4.647-2.277-6.447-2.459-3.416-.342-4.431.339-7.304 1.678l-1.583.424c-.963-.12-1.295-.806-1.459-.641-.386.409 2.862 11.404 12.662 12.093 4.121.282 6.4-2.958 6.4-2.958s.885.311 1.708.842l1.082.93c.97.016.584-.659.584-.659l-1.472-.609zM111.223 126.55c-.418-.706-.75-1.664-.581-1.816.783-.833 3.456-3.068 1.168-7.759-1.543-3.177-2.941-4.27-4.428-5.298-2.798-1.98-4.027-1.874-7.184-2.11l-1.603-.405c-.765-.571-.72-1.332-.946-1.273-.533.164-3.082 11.357 5.132 16.735 3.456 2.267 7.037.547 7.037.547s.601.713 1.076 1.573l.476 1.347c.832.476.848-.289.848-.289s-.544-.499-.995-1.252zM88.103 54.134l.324-1.871c1.099-.374 4.505-1.114 4.668-6.328.116-3.524-.615-5.144-1.436-6.74-1.565-3.045-2.692-3.543-5.378-5.215l-1.215-1.105c-.417-.861-.022-1.523-.261-1.568-.542-.108-8.017 8.588-3.262 17.194 1.988 3.612 5.946 3.772 5.946 3.772s.218.91.223 1.893l-.201 1.407c.528.817.89.143.89.143s-.238-.701-.298-1.582zM114.663 65.449l.375-1.868c1.104-.324 4.528-.971 4.856-6.172.209-3.529-.469-5.155-1.25-6.8-1.46-3.087-2.583-3.597-5.205-5.366l-1.184-1.138c-.394-.869.03-1.511-.211-1.58-.545-.115-8.276 8.362-3.782 17.094 1.89 3.678 5.847 3.95 5.847 3.95s.18.917.166 1.894l-.25 1.407c.49.831.879.161.879.161s-.225-.697-.241-1.582zM68.528 94.621l-1.115-1.541c.511-1.04 2.376-3.989-1.223-7.754-2.444-2.552-4.117-3.163-5.83-3.706-3.273-1.018-4.418-.562-7.497.193l-1.636.085-1.292-.917c-.465.324.507 11.747 9.97 14.384 3.984 1.103 6.874-1.615 6.874-1.615s.785.49 1.507 1.166l.856 1.143.719-.538a6.04 6.04 0 0 1-1.333-.9zM63.725 114.479c-1.328-.311-3.024-.353-3.201-.037-.952 1.704-3.217 7.107-11.905 5.795-5.881-.896-8.335-2.596-10.745-4.455-4.578-3.516-5.018-5.545-6.993-10.503-.323-.823-.782-1.861-1.459-2.348-1.295-.958-2.503-.499-2.51-.905-.007-.942 16.701-10.657 29.476-.154 5.389 4.424 4.444 11.032 4.444 11.032s1.433.618 3.061.948l2.393.101c1.198 1.104-.033 1.499-.033 1.499s-1.08-.63-2.528-.973z"/><path fill="#7CA840" d="M43.993 88.915l-2.146-.271c-.761 1.076-2.682 4.542-8.417 3.033-3.889-1.027-5.426-2.347-6.908-3.77-2.825-2.697-2.976-4.093-3.937-7.567l-.795-1.695c-.809-.734-1.664-.517-1.641-.777.064-.643 12.104-6.179 19.932 1.81 3.299 3.362 2.082 7.951 2.082 7.951s.915.526 1.999.857l1.59.254c.72.823-.133 1.001-.133 1.001l-1.626-.826zM116.645 38.229c.013-.923-.203-2.047-.443-2.115-1.273-.371-5.17-1.063-5.593-6.979-.294-4.015.471-5.894 1.326-7.759 1.648-3.533 2.917-4.138 5.9-6.176l1.334-1.307c.428-1-.055-1.721.212-1.793.623-.152 9.762 9.451 4.746 19.45-2.112 4.205-6.874 4.54-6.874 4.54s-.198 1.028-.163 2.164l.285 1.596c-.545.938-.983.185-.983.185s.249-.805.253-1.806zM38.034 51.006l-2.123-.453c-.856.991-3.085 4.272-8.654 2.234-3.795-1.376-5.182-2.837-6.532-4.395-2.566-2.936-2.59-4.341-3.222-7.895l-.65-1.747c-.739-.805-1.602-.678-1.557-.935.132-.623 12.619-5.045 19.693 3.626 2.959 3.653 1.325 8.119 1.325 8.119s.872.612 1.909 1.042l1.574.389c.64.891-.22.982-.22.982l-1.543-.967zM26.094 115.94c-.935-.028-2.063.173-2.135.41-.391 1.253-1.163 5.151-7.087 5.462-4.017.203-5.877-.584-7.727-1.485-3.505-1.708-4.082-2.991-6.064-6.007l-1.28-1.36c-.985-.454-1.729.008-1.8-.252-.124-.622 9.648-9.571 19.54-4.366 4.171 2.189 4.405 6.94 4.405 6.94s1.045.226 2.159.214l1.61-.254c.938.556.181.995.181.995s-.809-.268-1.802-.297zM77.648 79.097c-.546-.757-1.015-1.801-.861-1.988.825-1.036 3.622-3.849.548-8.936-2.079-3.449-3.786-4.538-5.546-5.566-3.394-1.946-4.769-1.71-8.377-1.658l-1.853-.307c-.921-.558-.961-1.436-1.203-1.332-.602.237-2.541 13.347 7.321 18.625 4.149 2.222 8.224-.246 8.224-.246s.761.732 1.384 1.668l.681 1.478c.999.466.93-.414.93-.414s-.675-.515-1.248-1.324zM85.737 123.054c-.656-.652-1.626-1.273-1.839-1.147-1.151.654-4.352 2.985-8.914-.822-3.085-2.589-3.899-4.425-4.644-6.342-1.409-3.643-.961-4.968-.361-8.522l-.017-1.876c-.417-1.012-1.266-1.17-1.144-1.404.327-.548 13.592-.464 17.287 10.098 1.57 4.432-1.492 8.076-1.492 8.076s.608.881 1.443 1.634l1.348.895c.305 1.051-.548.847-.548.847s-.412-.738-1.119-1.437zM125.359 88.169c-.071-.92-.388-2.021-.627-2.064-1.282-.277-5.237-.623-6.153-6.487-.625-3.982-.034-5.907.668-7.834 1.343-3.671 2.552-4.383 5.347-6.658l1.222-1.416.064-1.811c.602-.194 10.522 8.597 6.363 18.979-1.75 4.368-6.451 5.098-6.451 5.098s-.108 1.06.01 2.175l.429 1.563c-.468.999-.978.276-.978.276s.179-.816.106-1.821zM76.657 25.317c-.338-.856-.953-1.83-1.197-1.806-1.32.127-5.196.932-7.778-4.42-1.744-3.631-1.727-5.651-1.612-7.703.219-3.892 1.176-4.912 3.192-7.916l.765-1.704C70.056.685 69.346.173 69.57.017c.521-.363 12.561 5.191 11.57 16.337-.417 4.691-4.711 6.743-4.711 6.743s.205 1.046.651 2.077l.855 1.374c-.167 1.093-.847.547-.847.547s-.069-.842-.431-1.778z"/><path fill="#B1D135" d="M187.269 113.007l.927-.48c.019-.637-.163-2.54 2.534-3.491 1.828-.646 2.794-.532 3.776-.365 1.854.309 2.291.824 3.619 1.942l.777.461.856-.13c.148.271-3.163 5.623-8.449 4.562-2.225-.45-2.959-2.491-2.959-2.491s-.512.036-1.029.198l-.702.333-.219-.434c.001.001.403.018.869-.105zM137.561 109.84c.546.563 1.346 1.111 1.526 1.012.987-.529 3.749-2.435 7.529.885 2.559 2.252 3.22 3.833 3.805 5.473 1.114 3.111.711 4.229.122 7.229-.098.498-.204 1.14-.025 1.58.335.863 1.051 1.025.934 1.217-.29.461-11.35-.032-14.257-9.056-1.228-3.794 1.274-6.681 1.274-6.681s-.5-.746-1.188-1.403c-.336-.324-1.09-.675-1.117-.789-.231-.906.48-.711.48-.711s.328.632.917 1.244zM170.708 130.263c.546.565 1.343 1.114 1.527 1.014.984-.532 3.754-2.438 7.529.885 2.56 2.254 3.215 3.834 3.799 5.473 1.122 3.108.713 4.228.12 7.228-.09.5-.195 1.143-.021 1.586.332.858 1.056 1.022.935 1.216-.286.459-11.345-.032-14.262-9.054-1.232-3.797 1.284-6.683 1.284-6.683s-.504-.749-1.191-1.403c-.341-.327-1.095-.673-1.128-.792-.229-.904.486-.714.486-.714s.33.637.922 1.244zM159.979 127.24c.32.444.825.904.956.854.734-.268 2.834-1.318 5.126 1.347 1.551 1.812 1.854 2.964 2.1 4.157.465 2.265.075 2.999-.623 5.017l-.173 1.092c.143.628.631.814.531.934-.245.286-7.853-1.131-8.99-7.657-.481-2.752 1.539-4.5 1.539-4.5s-.274-.565-.68-1.089l-.707-.657c-.068-.646.413-.444.413-.444s.153.468.508.946zM147.765 140.157c.251.642.396 1.488.249 1.598-.788.593-3.329 2.104-2.062 6.355.864 2.874 1.885 3.977 2.983 5.058 2.08 2.039 3.124 2.117 5.737 2.755l1.277.561c.573.585.426 1.219.625 1.2.474-.062 4.158-9.096-1.985-14.746-2.594-2.388-5.829-1.439-5.829-1.439s-.411-.677-.69-1.467l-.217-1.193c-.633-.516-.742.128-.742.128s.386.496.654 1.19zM149.462 82.861c.685-.109 1.539-.071 1.615.097.416.89 1.359 3.692 5.783 3.34 2.989-.24 4.285-1.003 5.565-1.852 2.424-1.612 2.728-2.615 3.895-5.042l.819-1.136c.69-.426 1.283-.154 1.304-.358.034-.478-8.029-5.964-14.84-1.137-2.865 2.037-2.621 5.396-2.621 5.396s-.751.268-1.581.37l-1.205-.038c-.647.514-.038.758-.038.758s.566-.275 1.304-.398zM128.115 134.757l-.55 1.255c-.832.073-3.353-.002-4.373 3.63-.693 2.46-.465 3.725-.159 4.992.566 2.414 1.272 2.949 2.874 4.601l.666.979c.134.679-.254 1.075-.099 1.146.368.173 7.126-4.646 5.275-11.508-.777-2.888-3.532-3.684-3.532-3.684s.011-.671.173-1.37l.387-.952c-.221-.663-.6-.247-.6-.247s.057.526-.062 1.158zM143.334 102.261l.754.792c-.221.628-1.05 2.44 1.278 4.311 1.576 1.27 2.569 1.493 3.593 1.667 1.925.337 2.534-.012 4.231-.668l.922-.171.807.424c.237-.217-1.175-6.634-6.739-7.419-2.348-.327-3.783 1.43-3.783 1.43s-.484-.223-.94-.555l-.579-.575-.363.354c.001 0 .403.133.819.41zM184.65 98.96l.991.459c.034.662-.062 2.654 2.796 3.521 1.932.588 2.936.423 3.945.207 1.924-.406 2.36-.962 3.686-2.198l.79-.507c.544-.102.844.219.908.094.146-.291-3.561-5.713-9.021-4.367-2.305.57-2.978 2.732-2.978 2.732l-1.077-.154-.749-.319c-.53.159-.21.463-.21.463l.919.069zM168.836 83.189c.54-.095 1.235-.074 1.302.059.34.719 1.125 2.965 4.675 2.646 2.406-.217 3.442-.847 4.466-1.539 1.935-1.319 2.171-2.127 3.091-4.091l.646-.917c.554-.353 1.034-.144 1.047-.303.031-.378-6.509-4.728-11.947-.784-2.29 1.655-2.066 4.356-2.066 4.356s-.597.222-1.268.306l-.975-.01c-.504.412-.02.604-.02.604s.456-.226 1.049-.327zM172.697 116.295l.933.57c-.044.665-.375 2.623 2.36 3.828 1.853.813 2.864.77 3.896.672 1.958-.183 2.454-.677 3.92-1.746l.845-.413c.556-.037.815.311.891.201.172-.272-2.862-6.095-8.448-5.405-2.347.294-3.272 2.367-3.272 2.367s-.529-.077-1.052-.286l-.711-.404c-.547.099-.255.436-.255.436l.893.18zM152.286 129.004l.023 1.088c-.576.331-2.411 1.121-1.928 4.068.321 1.995.911 2.826 1.549 3.633 1.214 1.54 1.903 1.694 3.597 2.34l.804.486c.329.439.18.854.32.853.316.003 3.561-5.709-.059-10.022-1.514-1.811-3.757-1.465-3.757-1.465s-.222-.489-.332-1.04l-.042-.812c-.388-.403-.517.017-.517.017s.211.366.342.854zM136.112 125.567l-.004 1.091c-.587.304-2.439 1.044-2.052 4.004.27 2.006.83 2.845 1.449 3.684 1.161 1.574 1.848 1.738 3.516 2.442l.791.512c.316.444.149.852.293.864.318.004 3.731-5.611.245-10.025-1.466-1.857-3.722-1.577-3.722-1.577s-.2-.496-.3-1.047l-.014-.815c-.366-.415-.511.005-.511.005s.202.365.309.862zM158.835 104.095l.795.743c-.171.642-.896 2.504 1.541 4.226 1.656 1.165 2.663 1.324 3.685 1.44 1.953.213 2.545-.169 4.193-.933l.911-.227.827.374c.226-.234-1.577-6.547-7.186-6.988-2.361-.182-3.686 1.662-3.686 1.662s-.495-.188-.976-.489l-.607-.547-.345.381c0-.002.41.099.848.358zM159.349 92.404c.782.028 1.739-.135 1.804-.332.349-1.062 1.026-4.348 6.055-4.566 3.402-.142 4.97.543 6.528 1.322 2.96 1.473 3.431 2.566 5.088 5.135.271.426.643.96 1.077 1.159.834.397 1.462.004 1.511.232.107.529-8.215 7.828-16.552 3.329-3.514-1.894-3.711-5.712-3.711-5.712s-.872-.19-1.824-.197l-1.356.208c-.795-.488-.145-.846-.145-.846s.675.234 1.525.268z"/><path fill="#7CA840" d="M173.252 104.603l1.237-.084c.31-.687 1.01-2.847 4.396-2.63 2.301.149 3.309.723 4.298 1.36 1.886 1.205 2.123 1.973 3.047 3.82l.633.865c.534.323.991.107 1.007.256.035.369-6.124 4.806-11.402 1.175-2.225-1.527-2.044-4.24-2.044-4.24s-.571-.195-1.218-.262l-.923.032c-.495-.384-.033-.578-.033-.578l1.002.286zM137.992 141.084c.094.521.338 1.129.48 1.141.758.068 3.023.027 3.911 3.308.606 2.224.384 3.365.108 4.507-.538 2.166-1.183 2.647-2.636 4.12l-.606.882c-.13.607.22.961.078 1.032-.333.154-6.526-4.239-4.806-10.411.724-2.596 3.364-3.306 3.364-3.306s-.002-.603-.147-1.236l-.336-.867c.205-.585.535-.212.535-.212s-.053.478.055 1.042zM180.773 125.256l1.242.021c.374-.651 1.264-2.741 4.619-2.208 2.285.355 3.224 1.025 4.154 1.752 1.765 1.369 1.934 2.157 2.68 4.083l.557.911c.504.37.975.203.979.354-.006.364-6.539 4.225-11.469.129-2.065-1.728-1.638-4.418-1.638-4.418s-.558-.249-1.188-.376l-.926-.047c-.459-.429.016-.576.016-.576l.974.375zM180.342 87.445c.528-.088 1.141-.325 1.155-.466.081-.747.086-3.023 3.383-3.85 2.234-.557 3.367-.319 4.506-.016 2.156.574 2.622 1.232 4.069 2.709l.868.625c.604.147.972-.194 1.04-.057.139.336-4.369 6.442-10.503 4.603-2.587-.771-3.239-3.416-3.239-3.416s-.612-.013-1.235.116l-.878.321c-.59-.21-.211-.54-.211-.54s.483.063 1.045-.029zM155.416 113.823c.391.366.769.901.704 1.024-.351.673-1.613 2.561.673 5.083 1.549 1.71 2.628 2.135 3.73 2.518 2.122.722 2.869.438 4.891.01l1.076-.03c.579.213.697.702.823.616.31-.199-.04-7.781-6.164-9.664-2.576-.792-4.597 1.044-4.597 1.044s-.507-.329-.96-.784l-.546-.757c-.613-.153-.478.335-.478.335s.437.214.848.605zM146.035 90.005c.44.294 1.054.537 1.16.442.574-.494 2.119-2.157 5.101-.518 2.019 1.115 2.677 2.058 3.307 3.053 1.194 1.894 1.087 2.688 1.141 4.751l.214 1.053c.347.523.842.519.799.664-.124.343-7.589 1.755-10.827-3.773-1.37-2.319-.05-4.704-.05-4.704s-.438-.429-.991-.761l-.854-.353c-.287-.559.214-.538.214-.538s.312.369.786.684zM127.6 113.972c.143.509.44 1.093.579 1.091.752.015 3.013-.226 4.173 2.969.789 2.17.669 3.317.485 4.479-.351 2.211-.953 2.742-2.273 4.328l-.532.932.164 1.024c-.317.177-6.859-3.674-5.664-9.968.503-2.647 3.064-3.575 3.064-3.575s-.055-.608-.243-1.222l-.414-.831c.153-.613.52-.262.52-.262s-.01.478.141 1.035zM161.889 143.943c.285.444.737.926.871.883.728-.216 2.819-1.093 4.858 1.631 1.38 1.849 1.592 2.986 1.752 4.152.306 2.211-.118 2.89-.922 4.801l-.242 1.041c.104.612.56.824.449.936-.254.26-7.631-1.538-8.301-7.912-.282-2.683 1.908-4.308 1.908-4.308s-.231-.565-.595-1.098l-.631-.677c-.028-.632.416-.399.416-.399s.13.465.437.95z"/></g><path id="trunk" fill="#754D29" d="M89.454 213.05c-3.904-12.129-21.235-130.377 20.35-160.697.356-.252-10.875 37.315-12.124 76.67a272.188 272.188 0 0 0-.111 12.123l.033 2.165c.023 1.177 16.532-11.586 29.539-27.723 13.023-16.168 22.514-35.734 22.514-35.513 0 44.159-51.658 74.528-51.532 76.671l.096 1.753c1.832 29.856 6.828 54.551 6.828 54.551H89.454z"/></svg>