<svg xmlns="http://www.w3.org/2000/svg" width="310.328" height="306.489" viewBox="0 0 310.328 306.489"><g fill="#726658"><path d="M82.656 88.752l.205-.024c-.055-.051-.11-.102-.168-.152-.01.058-.024.117-.037.176zM26.687 91.364c.027.014.058.026.087.038.013.008.022.019.036.026-.003-.017-.011-.032-.014-.049-.037-.004-.074-.01-.109-.015zM73.173 37.491l.139-.063c-.023-.004-.047-.011-.069-.007-.028.005-.048.045-.07.07zM42.26 148.442l.02.028c.008.008.015.018.022.027l-.002-.055c-.017.004-.024-.003-.04 0zM26.43 91.329l.257.035c-.058-.027-.113-.054-.172-.075-.021-.008-.057.025-.085.04zM73.312 37.427l.063.006c0-.015.004-.025.004-.04a.75.75 0 0 1-.067.034zM154.003 160.846c.023.031.202.005.212-.022.057-.208-.026-.347-.246-.386-.198.138-.061.283.034.408zM153.969 160.438c.012-.008.014-.017.028-.025-.017.012-.025.009-.038.019v.001c.006-.001.006.004.01.005zM82.861 88.728c.01.007.017.015.024.022.01.003.015.008.024.011 0-.015-.009-.023-.008-.038l-.04.005zM50.604 88.777a.354.354 0 0 0 .033-.019c.006-.011.016-.019.021-.03-.017.001-.032.007-.05.007l-.004.042zM50.584 88.947l.02-.169-.174.095.154.074zM42.26 148.442l-.447-.654c.062.421.076.707.447.654zM76.563 212.517a.068.068 0 0 1-.012-.012.306.306 0 0 0-.007.024c-.007.034-.067.056.019-.012z"/><path d="M50.945 164.716c1.062-3.91 3.326-7.472 3.392-11.675.004-.282.187-.565.297-.841.941-2.361 2.323-2.94 4.564-1.739 1.705.913 3.346 1.96 4.948 3.045 1.504 1.019 2.931 1.185 4.601.333 2.029-1.033 4.036-2.239 6.297-2.65 2.688-.49 4.173-2.044 5.303-4.444 3.397-7.221 8.099-13.365 15.157-17.448 2.347-1.357 4.783-2.432 7.465-2.88 2.402-.401 4.812-.751 7.214-1.141 4.192-.679 8.364-.984 12.593-.108 3.482.722 6.527 2.627 9.975 3.406.352.08.719.396.938.702 2.351 3.28 5.85 4.645 9.5 5.762 1.483.453 3.04.904 4.139 1.976 2.732 2.658 5.857 4.972 7.82 8.345 2.783 4.783 7.042 7.935 11.787 10.446 5.393 2.854 10.993 5.312 16.176 8.576 1.246-2.539 1.178-2.806-1.023-4.072-.604-.349-1.214-.687-1.805-1.054-2.521-1.562-5.021-3.153-7.324-5.071 3.812 1.287 7.283 3.418 11.273 4.264-5.188-3.09-10.212-6.389-14.835-10.324 4.8 2.103 9.39 4.697 14.474 6.238-2.411-2.243-5.403-3.678-7.87-5.813-.087-.081-.259-.22-.249-.234.136-.202.3-.094.459-.015 2.111.887 4.095 2.077 6.427 2.835-.754-1.538-1.752-2.662-2.886-3.624-4.104-3.487-7.529-7.638-11.269-11.482-2.18-2.238-4.688-3.887-7.743-4.496-3.706-.738-6.986-2.356-9.862-4.695-5.757-4.684-11.981-8.304-19.421-9.554-1.909-.321-3.738-1.016-5.462-1.915-2.557-1.332-3.313-2.859-2.839-5.731.303-1.813.58-3.627.842-5.447.622-4.356 3.059-7.391 7.229-8.822 4.427-1.519 8.539-3.592 12.022-6.711 2.149-1.925 4.286-3.846 6.625-5.54 1.468-1.063 2.666-2.366 3.485-4.014 1.564-3.145 4.094-5.187 7.387-6.328 1.97-.683 3.937-1.371 5.904-2.062 1.396-.49 2.358-1.456 2.955-2.784.324-.724.583-1.479.844-2.23.884-2.546 2.508-4.069 5.342-4.209 1.415-.071 2.893-.112 4.14-1.018.822-.599 1.464-1.325 1.122-2.375-.793-2.452-2.075-4.341-4.795-5.237-2.757-.91-5.655-1.566-8.145-3.199-1.742-1.142-3.663-1.728-5.734-1.905-2.476-.213-4.964-.43-7.151-1.786-1.448-.897-3.001-1.538-4.619-2.042-7.489-2.333-15.067-4.402-22.273-7.565-.458-.201-.838-.296-1.212.1-1.312 1.392-2.621 2.786-3.947 4.194.393.126.854.309 1.332.422 5.956 1.399 11.773 3.312 17.43 5.555 4.706 1.868 9.593 3.225 14.226 5.279.705.313 1.539.389 2.323.467 2.238.218 4.232.998 6.034 2.344 1.403 1.048 2.938 1.903 4.678 2.228 1.062.197 1.009.636.595 1.411-.911 1.708-1.87 3.401-2.626 5.178-.66 1.551-1.627 2.771-3.128 3.43-4.828 2.118-8.738 5.455-12.492 9.051-4.292 4.111-9.629 7.064-13.261 11.925-.4.535-1.057.899-1.639 1.273-2.079 1.339-5.013 1.231-6.856-.221-1.316-1.036-1.593-2.095-.958-3.678 1.129-2.822 1.079-2.917-2.033-3.459-.584-.101-1.184-.121-1.777-.157-.87-.055-1.472.266-1.924 1.083-.769 1.39-1.541 2.846-2.841 3.802-4.47 3.293-6.988 7.897-9.021 12.897-.789 1.939-.702 3.65.412 5.373.295.457.545.949.779 1.442 2.232 4.676.467 9.442-4.266 11.493-.911.394-1.846.741-2.784 1.064-2.823.972-5.627 1.962-8 3.881-.827.669-1.859.958-2.915 1.005-2.445.107-4.828.543-7.218 1.058-5.336 1.148-6.854.37-9.39-4.49a12.761 12.761 0 0 0-.522-.9c-1.126-1.749-2.69-2.559-4.801-2.345-1.728.174-3.246.895-4.773 1.615-1.663.785-3.312 1.598-4.978 2.376-.729.34-1.51.687-2.232.042-.712-.634-.457-1.469-.295-2.241 1.126-5.347 2.285-10.686 3.386-16.037.431-2.101.735-4.229 1.098-6.343-2.429 1.789-4.55 3.723-6.661 5.667-.3.275-.43.641-.503 1.052-1.478 8.117-3.312 16.158-5.122 24.204-.198.889-.285 1.76.084 2.632.637 1.497 1.919 1.85 3.226.893 1.188-.873 1.966-2.093 2.837-3.241.839-1.106 1.605-2.479 2.996-2.799 4.5-1.036 9.026-1.733 13.166 1.267 1.49 1.079 2.98 2.156 4.484 3.215 2.864 2.019 4.443 3.557 1.516 8.302-.234.38-.51.736-.779 1.093-3.58 4.738-8.457 7.581-13.944 9.534-.287.103-.562.165-.867.066-2.94-.949-5.678-2.388-7.546-4.827-1.408-1.84-2.986-3.039-5.144-3.776-1.417-.484-2.205-.083-2.785 1.095-.26.526-.409 1.117-.543 1.694-1.171 5.086-1.922 10.244-2.724 15.398-.754 4.855-2.025 9.634-2.326 14.559-.248 4.072-.449 8.15-.508 12.229-.054 3.952-.596 7.978 1.176 11.757.863 1.842.961 3.711.318 5.652-.39 1.174-.809 2.358-.724 3.637.025.393-.054.813.364 1.064l5.674 3.391c-.171-2.943-.525-5.608-.038-8.271.232-1.269.525-2.588.152-3.85-1.687-5.709-1.271-11.535-.999-17.344.105-2.272-.027-4.467-.837-6.597-.861-2.267-.555-4.378.744-6.399.612-.965 1.214-1.935 1.518-3.062z"/><path d="M270.536 169.064c2.367-2.835 4.412-5.886 5.961-9.248.229-.501.676-.97.149-1.63-1.052-1.318-2.026-2.701-3.02-4.068-.385-.529-.634-.486-.939.088-.702 1.315-1.406 2.633-2.189 3.9-2.491 4.018-4.02 8.615-6.806 12.396-3.573 4.851-6.55 10.081-10.112 14.924-2.557 3.475-4.245 7.545-7.371 10.646-.75.746-1.455 1.013-2.363.727-1.468-.463-2.958-.904-4.345-1.558-2.906-1.371-5.927-1.599-9.039-1.177-5.327.721-10.225 2.803-15.149 4.808-3.441 1.401-6.805 3.051-10.553 3.56-3.928.533-7.854 1.85-11.821.906-4.404-1.049-9.02-.809-13.319-2.356-.291-.138-.583-.274-.874-.411-.93-.322-1.7-1.012-2.703-1.166l-.438-.167c-.276-.45-.748-.637-1.196-.829-6.475-2.758-11.61-7.478-16.684-12.078-5.947-5.396-12.049-10.617-17.999-16.009-.96-.871-1.906.082-2.705.464-.73.349.07.936.287 1.314 1.702 2.977 3.828 5.671 5.741 8.508l.525.666.445.502.266.326c.112.105.429.16.201.367-.162.147-.344-.003-.383-.234l-.32-.275-.464-.398-.604-.596c-2.765-2.442-5.17-5.223-7.559-8.02-.254-.295-.418-.888-1.037-.496-.73.462-.123.851.089 1.205 2.407 4.016 5.206 7.754 8.158 11.378 1.326 1.628 2.745 3.182 4.162 4.813-.221.065-.347.145-.398.111-.459-.29-.928-.569-1.348-.908-4.743-3.819-8.932-8.194-12.842-12.848-.178-.211-.295-.789-.73-.482-.342.24-.663.649-.37 1.157.199.345.431.669.642 1.006 2.088 3.339 4.482 6.462 6.783 9.671-1.631-1.037-2.87-2.496-4.203-3.84-1.367-1.378-2.631-2.859-4.146-4.524-.206 2.171.241 3.837 1.139 5.335 2.136 3.561 4.6 6.873 8.071 9.262 2.342 1.61 4.584 3.34 6.665 5.266 2.555 2.363 5.598 4.17 7.901 6.803 3.861 4.416 3.349 8.943-1.297 12.234a22.08 22.08 0 0 1-.368.256c-.318.218-.25.419-.071.734 1.534 2.699 2.88 2.898 5.024.668.756-.788 1.451-1.636 2.146-2.48 1.358-1.648 2.654-3.342 4.166-4.869 2.049-2.07 4.371-2.344 6.931-1.278 3.265 1.359 6.077 3.563 9.278 5.058.702.327 1.199.988 1.458 1.809.853 2.693-.642 6.051-3.228 7.181-1.589.694-3.329 1.068-4.769 2.071-2.181 1.517-4.555 2.617-7.021 3.566-2.642 1.02-5.343 1.909-7.786 3.381-4.463 2.688-7.424 6.375-7.779 11.783-.088 1.34-.25 2.676-.328 4.016-.07 1.178-.37 1.804-1.824 1.855-3.025.109-6.066.367-9.053.856-3.379.553-6.641.633-10.008-.222-3.13-.795-6.351-.177-9.859.063 1.76 1.639 3.269 2.994 4.717 4.413.797.78 1.637 1.111 2.784 1.084 9.104-.219 18.206-.391 27.31-.537 4.075-.066 4.867-1.178 2.979-4.869-1.282-2.502-1.55-5.091-1.552-7.792-.002-2.944 1.231-5.054 4.05-6.139 1.733-.667 3.224-1.756 4.725-2.818a32.29 32.29 0 0 1 3.532-2.207c4.007-2.124 8.248-3.699 12.434-5.413 3.982-1.63 8.032-3.035 11.034-6.498 3.284-3.785 8.079-4.229 12.372-1.613.849.516 1.733.975 2.622 1.418 2.757 1.371 5.587 1.661 8.519.566a51.578 51.578 0 0 1 3.666-1.236c1.822-.527 3.715.223 4.967 1.889 1.152 1.538 1.162 2.802-.013 4.657a38.233 38.233 0 0 1-1.766 2.584c-2.911 3.843-5.854 7.663-8.759 11.511-.671.889-1.236 1.857-1.96 2.957 2.713.08 5.154-.323 7.438-.946 1.314-.36 1.761-2.397 2.681-3.622.24-.316.456-.65.68-.978 2.801-4.095 5.353-8.354 8.785-12.012 2.172-2.314 3.828-5.079 5.47-7.804 1.229-2.038.658-3.479-1.557-4.305a7.389 7.389 0 0 0-1.438-.376c-5.53-.854-10.998-.698-16.352 1.09-1.342.448-2.702.622-4.113.478-3.399-.351-4.989-3.111-3.597-6.192.943-2.085 2.627-3.317 4.626-4.202 2.959-1.311 6.147-1.949 9.173-3.072 2.467-.917 4.938-1.892 7.565-2.229 4.325-.557 7.198-.164 6.729 5.197-.014.146.015.298.022.446.068 1.22.697 1.97 1.823 2.458 2.691 1.169 4.839.754 6.782-1.92 4.787-6.584 9.063-13.523 13.838-20.123 2.76-3.814 5.779-7.492 7.583-11.93.815-2 2.055-3.738 3.433-5.388z"/><path d="M242.436 85.478c-3.189-8.461-6.441-16.889-10.076-25.169-.215-.491-.283-1.131-.947-1.227-2.174-.318-4.355-.599-6.655-.909.169.449.258.725.37.99 3.74 8.715 7.077 17.59 10.456 26.447.937 2.456 1.312 5.114 2.417 7.511 4.238 9.199 7.237 18.798 9.442 28.665.479 2.146.015 2.814-2.229 2.932a5.945 5.945 0 0 1-1.34-.062c-3.551-.645-7.143.213-10.701-.309-.941-.137-1.978.02-2.744.544-2.938 2.012-6.267 2.43-9.686 2.907-4.41.615-8.379 2.741-12.464 4.42-1.256.516-2.534.884-3.911.761-1.761-.157-3.28-1.706-3.979-3.908-.53-1.668.503-2.504 1.616-3.308 5.266-3.798 6.324-10.624 3.882-16.065-1.576-3.514-4.002-6.22-7.752-7.53-.462-.517-1.094-.656-1.729-.792a2.967 2.967 0 0 0-1.847-.389c-.805-.368-1.685-.289-2.527-.429-2.415-.557-4.837-1.067-7.341-.908-.889-.129-1.766-.032-2.64.12-.805-.094-1.609-.246-2.418-.04l-3.216-.215c-.802-.205-1.603-.408-2.4-.613-3.152-.808-6.232-1.785-8.627-4.144-1.903-1.875-2.165-4.229-.78-6.517 1.786-2.956 4.455-4.737 7.698-5.749 2.674-.833 5.443-1.12 8.197-1.527 2.436-.361 5.115-.264 6.96-2.21 2.112-2.225 4.614-3.712 7.418-4.807.998-.391 1.896-.952 2.229-2.047.528-1.75 1.879-2.451 3.489-2.526 4.297-.201 8.342.475 11.452 3.868.569.623 1.196 1.193 1.804 1.782 1.397 1.36 3.034 2.191 4.995 2.43a18.75 18.75 0 0 1 5.573 1.559c1.534.704 3.1 1.341 4.919 2.123-.929-2.417-1.764-4.483-2.508-6.583-.307-.863-.775-1.381-1.641-1.743-2.459-1.03-5.111-1.684-7.152-3.57-1.84-1.698-4.078-2.571-6.473-3.194-3.551-.923-7.125-1.806-10.276-3.826-.583-.374-1.28-.499-1.986-.592-2.358-.313-3.941 1.007-5.46 2.496-2.834 2.777-4.837 6.247-7.811 8.957-3.045 2.774-6.064 5.262-10.356 5.61-2.978.242-5.697 1.296-8.26 2.788-.829.483-1.73.752-2.657.934-2.776.548-5.562 1.047-8.335 1.612-.615.125-1.278.127-1.822.556a229.755 229.755 0 0 1-4.724 3.638c-.775.578-1.057.912.083 1.479 3.959 1.972 7.177 4.766 9.231 8.77.318.622.751 1.284 1.404 1.496 2.445.791 4.783 2.049 7.394 2.169 1.616.073 3.136.333 4.646.888 1.305.481 2.656.885 4.062.315 1.065-.083 2.129-.168 3.194-.252 1.521.731 2.868 1.812 4.526 2.271.844.407 1.709.731 2.671.657 1.315.1 2.628.479 3.947.021l2.57.058c.689-1.191.949-2.463.981-3.777-.032 1.314-.292 2.586-.98 3.777.488.327 1.035.333 1.593.291l1.439.834c4.604 3.947 3.685 11.182-1.759 13.898-.533.265-1.075.557-1.517.947-1.943 1.718-4.258 2.485-6.779 2.78-.788.092-1.579.196-2.354.364-4.089.89-8.117 2.021-11.612 4.402-2.778 1.889-2.691 1.98-.263 4.348.469.457.799.553 1.402.25 4.55-2.283 9.604-2.674 14.479-3.794-3.283 1.892-7.013 2.829-10.219 4.901 4.968-1.275 10.101-1.772 14.985-3.461-4.07 3.156-9.166 4.17-13.476 6.838l10.64-2.225c-.653.666-1.252.79-1.788 1.028-2.632 1.167-5.336 2.167-7.858 3.578-.791.442-.816.767-.131 1.368a65.117 65.117 0 0 1 3.791 3.582c.522.538.754.541 1.231-.041 1.638-1.99 3.784-3.321 6.283-3.733 4.381-.723 8.371-2.342 12.2-4.506 1.753-.99 3.71-1.532 5.729-1.359 1.661.142 3.271.064 4.891-.253 3.313-.651 6.421-.075 9.343 1.596 1.556.89 3.134 1.804 4.868 2.229 3.296.809 6.404 2.127 9.591 3.234 2.155.75 4.36 1.49 6.701.854 1.815-.495 3.655-.329 5.489-.261 3.398.126 3.54.337 3.854 3.798.275 3.051.183 6.184 1.688 9.01 1.345 2.522 2.166 5.221 2.727 8.012.223 1.1.513 2.185.869 3.684 1.357-2.254 2.526-4.18 3.681-6.113 1.113-1.862 1.211-2.732-.286-4.228-2.128-2.126-2.431-4.247-.94-6.83 1.059-1.838.916-3.765-.406-5.459-1.881-2.411-2.842-5.196-3.576-8.105-.406-1.61-1.154-2.141-2.804-2.055-1.243.064-2.47.273-3.666.642-2.799.866-5.615 1.677-8.404 2.573-3.95 1.27-7.352.229-10.322-2.452-1.28-1.154-1.961-2.686-1.495-4.438.462-1.742 1.851-2.476 3.52-2.796 3.471-.667 6.816.137 10.175.834 2.041.423 4.046 1.081 6.154 1.112 1.166.018 2.259-.23 2.483-1.607.4-2.457.802-4.943.178-7.409-.719-2.835-1.398-5.682-2.568-8.391-1.043-2.414-2.003-4.86-2.732-7.403-1.986-6.92-3.654-13.919-6.205-20.682zM99.262 246.553c3.482 3.96 7.273 7.623 11.013 11.338 2.014 2.002 4.085 3.951 6.749 5.059 2.282.949 3.873 2.559 4.972 4.712.854 1.675 2.144 2.969 3.537 4.188.362.317.667.497 1.177.31 1.8-.66 3.615-1.277 5.558-1.959-.32-.357-.525-.633-.776-.854-6.807-6.04-13.259-12.479-20.162-18.391-4.894-4.19-8.262-9.322-11.347-14.776-.761-1.342-.283-2.707 1.144-3.521.754-.43 1.586-.555 2.441-.558 1.542-.008 3.104.057 4.599-.351 6.772-1.844 13.656-2.585 20.666-2.331 3.993.146 7.682-1.469 11.528-2.184.356-.067.945-.214.713-.89-.353-1.017-2.271-2.016-3.357-1.732-5.394 1.407-10.869 1.926-16.406 1.234-2.609-.326-5.124-.438-7.592.69-.687.313-1.591.561-2.207-.211-.68-.851.037-1.53.514-2.095 1.057-1.251 1.519-2.681 1.477-4.264a9.601 9.601 0 0 1 .832-4.193c1.099-2.509 1.646-5.057.887-7.824-.471-1.715.219-2.504 2-2.698 2.342-.255 4.627.113 6.63 1.313 4.139 2.48 8.18 5.141 11.328 8.883 2.512 2.984 5.441 5.506 8.432 7.977 2.96 2.445 6.244 4.423 9.361 6.641 1.864 1.327 1.788 1.436 3.632-.189-2.525-1.689-4.326-4.076-6.265-6.324-3.529-4.094-7.742-7.572-10.639-12.245-1.79-2.888-1.208-5.75 1.849-7.188.743-.35 1.535-.594 2.473-.949-.8-.702-1.532-1.347-2.266-1.988-3.906-3.42-8.692-5.846-11.657-10.328-.278-.42-.565-.457-.974-.121-1.99 1.633-4.512 2.288-6.678 3.584-2.689 1.607-5.546 1.966-8.602 1.781a32.12 32.12 0 0 0-11.587 1.415c-2.806.382-5.343 1.63-8.005 2.48-.69.065-1.349.251-2.021.437-3.265.9-5.958 2.894-8.899 4.421-3.336 1.731-5.953 3.831-6.779 7.656a.068.068 0 0 0 .012.012c-.087.068-.026.046-.019.013a.168.168 0 0 1 .007-.024c-8.335-7.608-15.236-16.52-22.888-25.142 0 2.557.044 4.644-.015 6.729-.044 1.542.483 2.688 1.633 3.77 3.181 2.987 6.6 5.766 8.928 9.561 1.068 1.743 2.435 3.261 3.784 4.792 2.593 2.943 5.403 5.693 7.75 8.855.959 1.293 2.305 1.81 3.917 1.73 1.943-.096 2.806-1.434 2.032-3.252-.234-.548-.57-1.055-.771-1.613-.648-1.794-.952-3.712.197-5.313 1.739-2.422 3.698-4.799 6.561-5.922 4.841-1.899 9.911-2.884 15.117-3.126 1.23-.058 2.184.405 2.939 1.418.801 1.072 1.531 2.266 2.688 2.974 2.518 1.542 3.706 5.571 2.4 8.968-.716 1.862-1.745 3.57-2.632 5.348-1.67 3.348-4.475 5.062-8.068 5.676-2.173.371-4.367.168-6.551.277-2.257.112-4.457.473-6.4 1.73-1.382.894-1.526 1.969-.466 3.174 1.053 1.196 2.044 2.485 3.403 3.33 2.863 1.778 4.907 4.297 6.767 7.03a31.017 31.017 0 0 0 2.382 3.05zM189.488 182.177a63.65 63.65 0 0 1-2.597-1.462c-3.265-1.971-6.638-3.777-9.68-6.107 3.832 1.451 7.637 2.936 11.888 4.246-1.938-3.034-3.387-5.924-5.52-8.367-.985-1.128-2.079-2.132-3.375-2.906-6.479-3.875-13.472-6.794-19.927-10.726-1.553-.946-3.005-1.906-4.139-3.323-1.271-1.591-2.514-3.199-3.589-4.937-1.938-3.122-4.66-5.54-7.341-7.983-.535-.488-1.197-1.065-1.97-.854-1.119.306-2.251 3.179-1.762 4.281.748 1.684 1.7 3.257 2.74 4.775 2.594 3.778 5.666 7.16 8.744 10.535l.582.579.414.502c.013-.01.021-.007.038-.019-.015.009-.017.018-.028.025.22.039.303.178.246.386-.01.027-.188.054-.212.022-.095-.125-.232-.271-.034-.408-.004-.001-.004-.006-.01-.006v-.001c-.335.227-.464-.047-.608-.284-.296-.082-.543-.229-.667-.529-5.046-3.578-9.511-7.799-13.569-12.585-.324.722.097 1.045.298 1.408 1.268 2.26 2.806 4.338 4.431 6.35 3.946 4.884 8.384 9.296 13.022 13.513.15.138.304.275.453.414.229.15.295.34.141.582a41.113 41.113 0 0 0-.385-.324c-.18-.119-.361-.237-.543-.355-4.141-2.235-7.712-5.256-11.312-8.233-2.55-2.108-4.887-4.449-7.295-6.88-.258 1.162-.088 2.006.586 2.792.938 1.093 1.806 2.245 2.7 3.374 1.99 2.517 4.275 4.772 6.35 7.236-3.008-1.806-5.537-4.227-8.281-6.377 1.076 2.565 2.312 4.993 3.925 7.207.767 1.049 1.622 2.025 2.771 2.672 1.139.639 2.069 1.543 3.102 2.315 6.267 4.681 11.424 10.604 17.511 15.522 3.739 3.023 7.735 5.328 11.943 7.439.445.203.892.406 1.338.611.707.422 1.479.678 2.267.91 3.686 1.094 6.204-.294 7.227-3.953.127-.457.158-.746-.285-.975-1.258-.646-2.38-1.568-3.786-1.924-.278-.206-.556-.41-.836-.615-3.737-2.271-7.581-4.368-11.173-6.919 5.294 1.873 10.519 3.942 15.989 5.349-6.795-4.158-13.927-7.761-20.025-13.004.548-.247.907.079 1.287.289 5.891 3.264 12.289 5.282 18.588 7.544.287.104.642.278.806-.022.194-.358-.095-.615-.438-.8zM53.315 93.346c-3.178 2.288-5.774 5.163-8.3 8.113-.288.336-.639.621-.562 1.153.326 2.284.634 4.572.971 7.022.312-.278.542-.447.729-.654 3.467-3.835 6.911-7.693 10.404-11.505 1.335-1.458 2.625-3.029 4.207-4.176 5.911-4.283 11.957-8.384 17.594-13.035 3.188-2.629 6.364-5.238 10.2-6.93a335.99 335.99 0 0 0 12.567-5.84c1.05-.515 1.667-.378 2.452.336a281.821 281.821 0 0 0 6.814 6.023c1.321 1.125 2.682 2.356 4.45 2.598 1.813.247 3.43.932 5.082 1.601 1.012.408 2.03.904 3.091 1.062 4.514.678 8.793 2.085 12.932 3.96.583.264.96.302 1.404-.237.976-1.187 2.015-2.321 3.126-3.588-1.601-.435-3.056-.885-4.452-1.569-4.427-2.167-8.933-4.167-14.059-3.499-4.199.548-7.192-1.074-9.638-4.491-1.984-2.773-4.049-5.551-6.636-7.843-1.964-1.74-3.13-1.991-5.394-.67-3.382 1.977-6.936 3.682-10.049 6.109-3.33 2.595-6.61 5.271-10.589 6.878-6.525 2.639-12.28 6.504-17.489 11.194-2.951 2.663-5.611 5.65-8.855 7.988zM225.596 26.579c6.323.139 12.056 2.122 17.477 5.314 2.824 1.664 5.941 2.931 8.14 5.419 5.729 6.484 10.516 13.46 11.17 22.515.238 3.309 1.048 6.557.469 9.931-.853 4.962-1.656 9.874-5.079 13.93-.741.878-1.194 1.05-2.146.692-1.957-.736-3.803-1.701-5.671-2.625-1.753-.868-3.481-1.809-5.547-2.276.899 2.186 1.738 4.198 2.549 6.222.19.474.392.861.896 1.104 2.103 1.011 4.163 2.116 6.287 3.084 1.866.851 3.868.982 5.829.406 3.545-1.041 4.838-3.852 5.335-7.187.213-1.424.188-2.905.775-4.236 1.415-3.223 2.215-6.583 2.459-10.083.254-3.664.964-7.353.072-10.994-2.527-10.3-7.452-19.081-16.194-25.482-3.593-2.63-7.539-4.628-11.385-6.789-5.655-3.176-11.911-4.26-18.501-4.646.745 1.846 1.442 3.527 2.099 5.226.194.503.572.467.966.475zM263.516 250.793c-2.82 7.232-6.27 14.067-12.329 19.245-3.077 2.63-5.776 5.579-10.077 6.565-6.439 1.477-12.775 2.641-19.444 1.588-5.921-.935-11.433-2.363-15.786-6.872-2.16-2.236-2.351-2.087-1.014-4.902 1.104-2.321 2.271-4.612 3.475-7.047-2.188.203-4.203.417-6.225.563-.561.041-.74.354-.957.77-1.283 2.472-2.432 5.004-3.188 7.688-.881 3.121.102 5.801 2.715 7.75a12.636 12.636 0 0 0 4.553 2.158c3.087.758 5.876 2.152 8.53 3.816 3.667 2.295 7.704 3.162 11.933 3.213 8.885.104 16.725-3.145 23.947-7.975 4.14-2.77 7.625-6.236 10.675-10.285 2.95-3.918 5.771-7.827 7.635-12.377.98-2.392 1.966-4.783 2.772-7.463-1.944.665-3.605 1.342-5.33 1.784-1.052.272-1.505.806-1.885 1.781zM42.986 241.075c-.022-.895-.387-1.27-1.175-1.585-6.265-2.504-11.23-6.843-15.396-11.933-4.846-5.92-7.506-12.885-8.163-20.6-.493-5.775.239-11.273 2.746-16.532 2.461-5.161 4.693-10.456 10.473-12.966.822-.357 1.32-.492 2.085.016 1.989 1.32 3.745 2.939 5.99 4.596 0-1.224-.194-2.16.035-2.979 1.008-3.618-.877-5.353-3.773-7.051-4.27-2.504-7.869-1.956-11.032 2.742-1.59 2.36-2.538 5.144-5.065 6.84-1.422.954-2.37 2.398-3.131 3.922-3.946 7.894-4.902 16.156-3.112 24.785 1.276 6.156 3.902 11.748 6.906 17.203 4.916 8.928 11.725 15.579 21.832 18.343 1.069.293 1.362.128 1.2-.96-.192-1.274-.387-2.558-.42-3.841zM265.761 107.876c-.528 1.123-.808 2.31-.923 3.541-.241 1.439-.186 2.885.08 4.303.853 4.549 1.65 9.094 1.448 13.76-.051 1.229.231 2.462.69 3.64 2.227 5.708 4.751 11.315 8.377 16.242 5.693 7.733 12.228 14.774 18.885 21.692.682.709 1.012.459 1.437-.188.734-1.121 1.45-2.248 2.067-3.444.358-.697.282-1.096-.256-1.671-5.809-6.192-11.882-12.112-17.132-18.855-5.178-6.651-8.004-14.109-9.517-22.195-.696-3.723.323-7.426.711-11.129.197-1.89.184-1.84 2.047-1.386 3.948.959 7.506 2.884 11.2 4.468.86.37 1.215.316 1.439-.625.266-1.109.598-2.21.996-3.278.344-.923.175-1.413-.795-1.803-2.717-1.094-5.393-2.293-8.083-3.447-2.288-.98-4.603-1.87-7.095-2.169-2.34-.28-4.789.165-5.576 2.544zM214.528 254.182c3.729-.926 7.404-1.835 11.299-1.625 1.47.079 2.961-.307 4.447-.438.496-.043.862-.168 1.027-.671.592-1.812 1.188-3.624 1.855-5.659-6.908.994-13.591 1.901-20.254 2.935-3.965.616-7.839 1.854-11.934 1.473-3.055-.285-6.06.2-9.006.931-3.88.963-7.71.082-11.547-.197-1.602-.117-1.897-1.045-1.048-2.41 1.037-1.662 2.37-3.145 3.948-4.231 2.454-1.688 1.551-5.051-.797-6.425-.856-.502-1.718-.996-2.543-1.547-3.39-2.271-4.881-2.012-8.723.523.658.261 1.257.484 1.846.735.91.388 1.858.717 2.711 1.206 2.655 1.519 3.012 3.672 1.022 6.019-.805.949-1.769 1.737-2.733 2.526-2.254 1.842-5.108 2.664-7.401 4.438-.892.69-1.787 1.396-1.589 2.649.214 1.365 1.192 2.098 2.473 2.496 1.212.379 2.454.369 3.694.347 9.603-.167 19.191-.653 28.767-1.382 4.851-.368 9.75-.515 14.486-1.693zM303.555 184.812c-1.594 1.697-3.244 3.259-5.027 4.672-.423.335-.359.775-.371 1.221-.084 3.433-.227 6.863-.256 10.295-.043 4.72-.928 9.188-2.853 13.563-3.981 9.046-9.72 16.124-19.275 19.768-5.565 2.121-11.021 4.543-16.62 6.59-2.866 1.047-5.986.942-8.865 1.951-.504.178-1.109.156-1.354.771-.781 1.965-1.637 3.905-2.174 5.93.31.237.547.123.779.059 5.311-1.469 10.613-2.96 15.931-4.404 10.403-2.828 19.483-8.071 27.627-15.045 4.74-4.061 7.803-9.208 9.472-15.143.867-3.094 1.309-6.308 2.125-9.432 1.62-6.201 1.255-12.535 1.137-18.846-.013-.608.222-1.277-.276-1.95z"/><path d="M261.26 223.038c1.476 3.244 2.114 6.719 2.962 10.137.209.84.472 1.193 1.394.765a26.109 26.109 0 0 1 3.34-1.269c.954-.296 1.027-.824.781-1.677-.728-2.528-1.345-5.087-2.096-7.607-.738-2.477-1.54-4.942-3.091-7.069-1.535-2.107-3.558-2.742-5.878-1.594-2.747 1.359-5.203 3.176-6.67 5.95-1.203 2.276-2.737 4.255-4.559 6.042-2.478 2.426-4.377 5.189-5.718 8.443-4.129 10.03-7.238 20.408-10.712 30.662-.987 2.912-2.269 5.701-3.607 8.65 1.876.021 3.531-.271 5.198-.393 1.261-.092 1.783-.729 2.196-1.812a209.14 209.14 0 0 0 5.824-17.679c1.658-5.886 4.291-11.44 5.735-17.397.399-1.645 1.408-3.072 2.755-4.177 1.468-1.204 2.724-2.608 3.973-4.028 2.041-2.318 4.29-4.418 6.698-6.358.861-.694 1.053-.511 1.475.411zM208.97 24.72c-.419-1.139-1.001-1.135-1.883-.538-2.73 1.849-5.722 3.123-8.858 4.133-2.14.688-4.01 1.956-5.721 3.424-1.134.975-1.896 2.152-1.881 3.905-.045.736.237 1.567.708 2.356 1.567 2.634 3.989 4.291 6.66 5.547 4.439 2.089 8.884 4.172 13.361 6.183 5.581 2.506 11.377 3.927 17.335 4.6 8.938 1.009 17.861 1.99 26.605 4.206 2.675.678 2.523.617 2.057-2.192-.441-2.646-1.668-3.92-4.398-4.105a143.899 143.899 0 0 1-11.701-1.27c-4.463-.673-8.878-1.658-13.333-2.397-5.154-.855-10.276-1.746-14.977-4.223-.95-.501-2.058-.724-3.108-1.012-2.482-.681-4.749-1.726-6.591-3.583-1.401-1.411-2.807-2.815-4.258-4.171-.711-.665-.731-1.001.132-1.62 3.187-2.288 6.55-4.12 10.488-4.702 1.038-.153 1.322-.602.763-1.583a19.539 19.539 0 0 1-1.4-2.958zM90.861 39.957c.266-1.26.996-2.795.54-3.731-.493-1.013-2.327-.654-3.553-.988-.335-.092-.686-.129-1.017-.231-.663-.207-.97-.018-1.089.709-.655 4.017-1.663 7.983-1.693 12.087 0 1.295-.003 2.589.352 3.853.749 2.66 1.904 3.607 4.662 3.73 2.436.108 4.744-.501 6.938-1.484 10.103-4.526 18.956-10.784 26.527-18.901 3.649-3.911 7.114-8.067 11.824-10.849.501-.296.947-.749 1.302-1.218 2.106-2.783 4.352-5.434 7.113-7.601.602-.471.441-.723-.132-1.049-1.364-.775-2.954-1.025-4.284-1.881-.322-.207-.746-.257-1.108.075-1.857 1.709-3.976 3.177-5.05 5.597-.874 1.967-2.188 3.501-4.162 4.486-2.383 1.188-4.41 2.85-6.148 4.882-1.096 1.282-2.29 2.482-3.439 3.719-3.975 4.282-8.599 7.778-13.193 11.357-3.29 2.562-6.845 4.362-10.632 5.875-1.397.558-2.86.74-4.376.734-1.037-.003-1.317-.371-1.105-1.318.584-2.617 1.171-5.232 1.723-7.853zM161.398 287.063c1.086.598 2.123 1.297 3.127 2.025.619.451 1.004.42 1.457-.209.728-1.008 1.549-1.945 2.293-2.939 1.82-2.43 3.602-4.889 4.686-7.758 1.286-3.404.344-5.554-3.014-6.895-2.573-1.027-5.305-1.299-8.03-1.499-12.425-.915-24.011 2.478-35.35 7.022-2.81 1.127-5.526 2.439-8.524 3.084-3.925.845-7.654 2.412-11.889 3.252 1.414 1.619 2.855 2.748 4.239 3.945.68.59 1.324.674 2.167.428 3.057-.891 6.058-1.939 9.044-3.033 9.975-3.653 19.815-7.653 30.566-8.736 5.038-.508 9.624.587 14.298 2.091-1.41 2.853-3.247 5.315-5.275 7.644-.559.64-.691 1.086.205 1.578z"/><path d="M42.212 58.489c2.812-6.135 5.556-12.238 11.109-16.677 4.053-3.24 7.966-6.444 12.852-8.475 5.681-2.362 11.421-3.754 17.547-2.991 6.302.784 12.542 1.722 18.495 4.277 4.626 1.987 4.754 1.696 8.448-1.73.358-.333.98-.751.943-1.064-.077-.612-.858-.541-1.351-.677-5.553-1.526-11.185-2.779-16.562-4.9-.871-.344-1.8-.615-2.726-.739-8.4-1.124-16.667-.396-24.802 1.91-1.34.38-2.601.985-3.78 1.742-2.554 1.637-5.117 3.256-7.665 4.898a23.56 23.56 0 0 0-6.253 5.906c-1.031 1.399-2.032 2.827-3.158 4.147-4.678 5.483-8.546 11.446-11.209 18.449 1.939-.611 3.597-1.294 5.325-1.629 1.513-.296 2.186-1.139 2.787-2.447zM274.168 68.867a150.445 150.445 0 0 1 4.192 3.334c2.979 2.45 5.689 5.061 6.546 9.091.407 1.919 1.775 3.271 3.463 4.258.194.315.377.646.813.663.024.152.046.305.067.456l.283.056-.049.012c.779 1.377 1.681 2.698 1.959 4.306 1.39 8.063 2.749 16.163-.393 24.109-3.089 7.808-4.031 16.564-10.07 23.089-.383.414-.363.874-.074 1.367.951 1.623 1.871 3.265 3.277 4.866 1.195-2.636 2.604-5.007 4.192-7.271.893-1.27 1.48-2.68 1.846-4.198.373-1.54.735-3.092 1.452-4.526 2.948-5.899 5.023-12.079 6.154-18.589 1.232-7.093 1.154-14.062-1.706-20.795-.545-1.283-.87-2.761-2.181-3.605a.313.313 0 0 0-.155-.172c.12-1.069-.915-1.486-1.285-2.278l-.844-.812c-1.153-2.068-2.047-4.345-3.51-6.162-3.916-4.862-7.885-9.708-12.742-13.702-.567-.466-1.093-1.096-1.954-1.186 0 2.125.028 4.157-.016 6.188-.013.672.212 1.101.735 1.501zM215.246 288.624c-2.651 2.096-5.327 4.164-8.06 6.15-3.076 2.234-6.462 3.848-10.126 4.928-4.944 1.461-10.019 1.348-15.083 1.48-3.004.078-5.771-.699-8.449-2.031-2.442-1.217-4.932-2.359-7.471-3.355-2.034-.795-3.813-1.85-5.309-3.453-2.571-2.76-5.663-4.857-9.051-6.447-1.896-.889-3.507-2.023-4.833-3.615-.311-.374-.601-.822-1.199-.762-2.312.23-4.653.332-6.838 1.461a19.616 19.616 0 0 0 5.103 3.131c1.741.73 3.157 1.82 4.366 3.258 2.805 3.332 6.253 5.789 10.303 7.4 1.766.705 3.343 1.701 4.789 2.951 1.974 1.705 4.188 3.086 6.774 3.592 3.654.719 7.293 1.455 10.859 2.547 1.279.393 2.628.512 3.972.584 6.979.371 13.408-1.504 19.713-4.369 6.784-3.08 12.758-7.215 18.259-12.508-2.085-.461-3.984-.83-5.854-1.318-.745-.197-1.246-.113-1.865.376zM36.85 141.263c1.272-3.009 2.588-6.069 3.278-9.238 1.056-4.845 1.043-9.858 1.441-14.799.307-3.826-.955-7.576-1.082-11.412-.125-3.732-.698-7.413-1.662-11.032-.487-1.83-.714-3.699-.81-5.596-.183-3.673-.637-7.323-1.056-10.976-.124-1.076-.511-.843-1.08-.48-1.13.719-2.232 1.484-3.375 2.185-.881.541-1.041 1.243-.941 2.251.559 5.685 2.05 11.214 2.579 16.921.554 5.975 1.993 11.862 1.792 17.925-.096 2.88-.835 5.714-.579 9.147.646 2.999-.477 6.039-2.57 8.819-.208.277-.391.575-.581.866-1.065 1.623-1.05 1.601-2.62.46-2.245-1.63-3.912-3.808-5.646-5.918-.547-.665-.966-.851-1.672-.2-.948.875-1.991 1.644-2.978 2.479-.274.233-.733.449-.298.946 3.135 3.583 6.028 7.427 10.104 10.042 3.474 2.231 6.135 1.443 7.756-2.39z"/><path d="M8.059 176.92c-1.624-1.673-2.377-3.717-1.992-6.136.359-2.261.022-4.424-1.085-6.496-.765-1.427-1.613-2.911-1.37-4.642.505-3.585 1.048-7.171 2.293-10.592.611-1.683 1.228-3.367 1.42-5.147.712-6.619 4.34-11.336 9.582-15.085 4.296-3.073 8.775-5.802 13.652-7.857.374-.157.941-.204.966-.793.088-2.043.396-4.088.124-6.335a61.692 61.692 0 0 1-7.638 3.749c-7.924 3.255-13.605 9.128-18.657 15.757-.878 1.15-1.478 2.467-2.046 3.795-1.179 2.74-1.364 5.67-1.801 8.569-.523 3.482-1.108 6.937-1.362 10.467-.929 12.911 2.658 24.557 9.534 35.338.331-1.196 1.005-2.325 1.12-3.635l.358-.838c.42-.873 1.309-1.723.912-2.713-1.043-2.612-1.961-5.294-4.01-7.406zM65.099 239.308c.415.823.526 1.31-.634 1.427-1.282.129-2.555.363-3.826.582-1.094.188-2.642-.529-3.184.41-.469.814-.01 2.221.176 3.342.414 2.505-.231 1.98 2.388 2 .051 0 .101-.004.15-.008l.007.07c2.124-.242 4.25-.457 6.367-.736a14.825 14.825 0 0 0 2.468-.555c4.038-1.258 5.161-3.642 3.548-7.543-1.719-4.154-4.611-7.514-7.47-10.892-2.056-2.431-4.097-4.89-7.216-6.058-2-.748-3.636-1.996-5.066-3.569-.833-.916-1.667-1.896-2.68-2.575a199.275 199.275 0 0 0-12.545-7.748c-.424-.24-.926-.353-1.4-.488-2.663-.762-5.079-1.906-7.021-3.986-1.608-1.723-3.71-2.818-5.7-4.04-.25-.155-.681-.581-.785.032-.339 1.959-.495 3.942-.263 5.93.043.379.445.514.737.691 1.528.938 2.931 2.047 4.312 3.183 1.257 1.034 2.67 1.666 4.306 1.849 2.338.26 4.392 1.178 6.097 2.829 1.728 1.673 3.707 2.995 5.791 4.17 2.34 1.317 4.562 2.816 6.755 4.362 6.392 4.504 11.181 10.365 14.688 17.321zM158.83 7.073c2.271-.541 4.571-.963 6.837-1.529 5.565-1.39 11.141-1.851 16.831-.733 3.453.678 6.893 1.395 10.314 2.205.212.307.525.236.824.219 1.123.509 2.325.893 3.351 1.555a46.435 46.435 0 0 0 6.425 3.452c1.842.814 3.455 1.958 4.75 3.517 3.082 3.709 5.339 7.888 6.99 12.396 1.59 4.343 2.659 8.847 3.991 13.269.123.411.108.96.618 1.117 2.065.642 4.164 1.153 6.453 1.451-1.628-4.848-3.102-9.544-4.778-14.168-3.162-8.726-7.504-16.549-16.187-21.118-2.576-1.357-4.751-3.481-7.331-4.831-5.19-2.718-10.846-3.764-16.686-3.77-6.354-.005-12.72-.46-19.054.554-3.367.538-6.714 1.116-10.159 2.143 1.967 1.423 3.876 2.592 5.561 4.065.357.311.761.323 1.25.206z"/><path d="M91.401 287.795c-.581-1.158-.995-2.412-1.906-3.387-.105-1.418-.836-2.129-2.263-2.469-3.654-.871-7.516-.898-10.925-2.799-3.92-2.186-7.562-4.753-11.13-7.465-4.384-3.33-7.066-7.864-9.5-12.62-.506-.985-.723-2.066-.85-3.148-.892-7.498-2.385-14.962-2.42-22.511-.021-4.207-1.875-6.61-5.162-8.478-.359-.204-.637-.79-1.114-.501-.378.229-.135.737-.119 1.116.191 5.069.562 10.127 1.111 15.169.632 5.832 1.557 11.58 3.44 17.197 2.202 6.567 5.372 12.482 10.098 17.543a23.585 23.585 0 0 0 7.856 5.553c4.096 1.791 8.459 2.891 12.488 4.859 3.507 1.713 7.362 2.23 11.121 3.305-.071-.641-.3-1.057-.725-1.364zM310.182 148.02c-.085-2.406-.562-4.726-1.514-6.947-.589-1.37-1.079-2.765-1.237-4.272-.663-6.292-4.31-11.158-7.769-16.393-.312.875-.443 1.564-.779 2.134-1.799 3.062-1.246 5.674.636 8.678 2.264 3.614 4.544 7.375 5.146 11.786.488 3.579 1.556 7.086 1.207 10.77-.396 4.213-1.248 8.326-2.298 12.425-1.122 4.385-3.187 8.128-6.705 10.979-3.506 2.84-6.82 5.926-10.656 8.343l-2.691.775-1.473.451-3.209 1.232c-1.463-.014-2.752.929-4.24.772-.206-.829-.795-1.419-1.286-2.069-.252-.835-.757-1.513-1.335-2.146-.51-.855-1.014-1.711-1.522-2.566-.317-.73-.555-1.512-1.217-2.184-.96 1.471-1.793 2.856-2.738 4.158-.529.728-.558 1.298.073 1.912.595 1.11 1.087 2.281 1.91 3.258.683 1.756 1.707 3.277 3.114 4.535 1.544 1.652 3.45 2.248 5.665 1.949 1.289-.063 2.501-.412 3.658-.971 1.005-.4 2.02-.779 2.925-1.389.735-.11 1.268-.594 1.844-.996.843-.556 1.687-1.11 2.529-1.666 1.206-.689 2.37-1.472 3.625-2.055 4.303-1.998 7.504-5.176 9.889-9.194 1.899-3.2 3.652-6.486 5.469-9.735.657-1.175 1.128-2.421 1.546-3.702 1.901-5.847 1.647-11.859 1.433-17.872zM222.78 101.638c-.258-5.096-2.38-9.159-7.096-11.599-2.977-1.541-6.223-1.943-9.47-2.411-1.07-.155-1.487.164-1.621 1.262-.141 1.126-.368 2.244-.462 3.384-.449 5.407 1.204 10.276 3.724 14.949 2.196 4.081 4.244 8.219 3.243 13.175 5.991-2.759 6.698-12.837 1.817-21.627 6.513 5.5 6.629 12.22 3.545 19.556.746-.002 1.032-.545 1.311-.942 3.297-4.726 5.306-9.907 5.009-15.747zM96.099 95.995c-2.608 3.854-3.062 8.062-2.064 12.503.067.296.155.75.539.804.467.065.484-.392.589-.709.735-2.281 2.089-4.145 3.844-5.75 1.766-1.616 3.725-2.983 5.684-4.337 5.091-3.515 8.601-8.172 10.345-14.12.141-.481.548-1.155-.38-1.475-2.105-.726-4.145-1.623-6.343-2.095-6.953-1.494-12.801 1.361-15.87 7.774-2.711 5.665-2.897 11.545-1.579 17.576.308-3.789.941-7.48 3.1-10.722 2.219-3.333 5.188-5.533 9.315-5.97-3.019 1.495-5.316 3.765-7.18 6.521zM148.657 296.485c-7.98 3.199-16.14 4.717-24.668 2.438-.286-.078-.595-.174-.88-.145-4.449.467-7.71-1.631-11.064-4.336-4.874-3.936-9.473-8.012-12.776-13.391-.399-.77-.801-1.54-1.202-2.312-2.615-4.745-2.528-9.896-2.317-15.083.055-1.31.418-2.01 1.815-2.369 2.725-.704 5.497-1.115 8.651-1.634-1.634-1.581-3.075-2.915-4.442-4.321-.561-.576-1.104-.688-1.855-.529-2.002.416-3.947.99-5.797 1.857-3.932 1.848-5.638 5.012-5.033 9.314.524 3.745 2.078 7.248 2.6 10.998a11.8 11.8 0 0 0 1.059 3.555l1.703 3.877c2.54 4.838 5.931 9.068 10.591 11.855 7.405 4.432 15.306 7.576 24.13 8.133 6.165.387 12.209.287 18.145-1.525 2.404-.736 4.793-1.537 7.025-3.021-1.588-1.145-3.037-2.18-4.477-3.232-.391-.283-.699-.334-1.208-.129zM14.757 174.165c-.021 1.24.084 2.452 1.053 3.694 2.14-4.301 5.383-7.634 7.837-11.526 2.742-4.354 3.659-9.059 2.345-13.985-1.462-5.485-.223-5.2-6.093-3.241-5.605 1.871-8.965 5.896-9.79 11.81-.441 3.164-.22 6.344.353 9.49.18.976.332 1.96.569 2.922.223.907.244 1.883.886 3.058.533-6.333 2.516-11.7 6.597-16.176.163.978-.384 1.714-.712 2.521-1.5 3.681-2.977 7.37-3.045 11.433zM81.193 61.076c3.126-7.436 1.057-13.995-5.784-18.3-.605-.381-1.026-.466-1.525.124-2.444 2.893-4.364 6.017-4.835 9.892-.736 6.03 2.4 11.338 3.135 17.147 3.973-4.963 2.924-10.808 2.991-16.887 2.198 5.822 2.269 11.291.674 16.878 2.097-2.783 3.995-5.645 5.344-8.854zM124.078 56.207c1.255-.958 2.643-1.566 4.229-1.647 4.069-.209 7.581-2.131 11.628-3.68-1.964-.701-3.582-1.089-5.017-1.832-2.663-1.378-4.919-.772-7.133.937-2.016 1.556-4.347 2.325-6.862 2.667-2.384.325-4.584 1.286-6.717 2.349-1.674.835-1.801 1.935-.499 3.298.829.868 1.817 1.547 2.854 2.137 3.063 1.742 6.134 3.469 9.211 5.181 1.407.781 2.041 1.78 1.773 3.519-.405 2.647-.221 2.76 2.329 3.793.093.037.189.062.282.099 3.023 1.214 4.467.289 4.699-3.012.093-1.338-.221-2.554-1.018-3.646-.98-1.345-2.271-2.345-3.609-3.298-2.102-1.495-4.4-2.715-6.275-4.523-1.077-1.043-1.035-1.454.125-2.342zM145.232 67.521c-1.216 2.915-1.36 5.857.382 9.17.84-4.011 3.439-6.181 6.053-8.341.612-.507 1.228-1.009 1.838-1.518 3.154-2.621 5.188-5.934 6.286-9.885.361-1.298.098-1.935-1.236-2.195-1.021-.199-2-.613-3.023-.791-4.267-.744-8.203-.214-10.959 3.553-3.728 5.097-3.734 10.722-2.131 16.511.507-7.779 3.521-12.601 8.833-13.299-3.005 1.734-4.875 4.001-6.043 6.795zM175.305 39.444a13.47 13.47 0 0 0-5.6-.488c-3.062.375-5.729 1.585-7.626 4.154-.203.276-.525.597-.33.928.24.407.614.058.918-.033 1.71-.512 3.42-.458 5.154-.104 1.76.358 3.444.958 5.153 1.479 3.579 1.092 7.202 1.518 10.86.464 4.031-1.161 3.362-.701 2.288-4.173-1.24-4.009-3.428-7.465-7.881-8.333-6.172-1.201-11.011 1.598-15.412 5.705.476.211.728.106 1.021.003 1.495-.521 2.924-1.23 4.499-1.524 2.534-.471 4.938-.116 7.224 1.073.399.208.955.442.73.946-.247.563-.679 0-.998-.097zM219.916 126.977c2.163-2.542 4.855-3.312 7.674-3.817 1.172-.209 2.341-.433 3.507-.671 3.671-.75 6.73-2.585 9.331-5.25.717-.736 1.006-1.345.056-2.185-1.264-1.116-2.412-2.363-3.845-3.283-2.87-1.845-5.892-2.254-9.073-.884-3.776 1.625-6.093 4.667-7.827 8.228-.592 1.214-1.146 2.472-1.243 4.006 4.966-6.295 8.739-8.311 12.444-6.717-7.765 2.132-11.232 5.328-11.024 10.573z"/><path d="M297.039 147.863c3.197 3.682 4.573 8.077 5.048 12.881a30.802 30.802 0 0 0 1.095-3.95c.787-3.728 1.252-7.491-.171-11.151-1.719-4.422-5.456-6.34-9.761-7.467-.688-.181-.882.192-1.07.692-1.59 4.238-2.075 8.475.031 12.7 1.863 3.734 4.798 6.774 6.677 10.613.896-1.629 1.052-3.199.706-5.367-.487-3.062-1.753-5.88-2.699-8.799-.119-.121-.305-.227-.089-.419l.233.267zM122.003 11.454c2.56-1.479 5.354-1.731 8.204-1.642-3.764-1.257-7.521-1.512-11.336-.537-4.918 1.258-7.988 4.799-8.058 9.444-.029 1.996.409 3.934.915 5.869.284 1.089.777 1.113 1.701.917 4.151-.882 7.494-3.03 10.223-6.245 2.337-2.753 4.562-5.679 8.718-6.438-2.334-1.514-4.558-1.626-6.848-1.101-2.588.594-4.765 1.93-6.593 3.856-.206.218-.426.69-.801.44-.55-.365.033-.694.184-.978.84-1.587 2.158-2.699 3.691-3.585zM276.13 98.943c4.246-2.798 7.027-7.201 5.582-12.772-.83-3.199-3.474-8.385-5.194-9.888 1.271 5.703 1.079 10.517-.688 13.469 0-2.668.08-5.057-.025-7.438-.087-1.989-.433-3.958-1.702-5.611-.141-.183-.375-.396-.576-.407-.304-.018-.312.309-.342.554-.35 2.729-1.265 5.318-2.037 7.937-1.503 5.103-.313 9.604 2.859 13.725.627.814 1.229 1.022 2.123.431zM261.239 104.423c1.531-2.981 1.835-6.146 1.408-9.42-.057-.432-.014-.944-.696-.908-3.893.207-7.674.675-10.059 4.356-2.935 4.536-.829 11.917 1.805 14.678.016-.215.064-.417.036-.607-.059-.39-.164-.774-.239-1.162-.712-3.67-.285-7.019 2.726-9.635.134-.105.372-.313.385-.299.233.236.063.389-.142.524-1.382 2.432-2.146 5.011-1.824 7.834.243 2.127 1.03 3.972 3.106 5.576-.672-3.63.991-6.26 2.472-8.949.358-.653.679-1.326 1.022-1.988zM87.271 113.428c.271.109.585.272.808-.031.081-.111.033-.383-.045-.534-1.325-2.562-1.885-5.395-2.89-8.069-1.697-4.514-5.056-7.103-9.556-8.414-.489-.143-.924-.301-1.212.377-2.019 4.732-2.218 9.78 2.487 13.654 2.551 2.1 5.359 3.82 8.691 4.617-3.414-2.961-5.471-6.661-6.478-10.972 1.163 1.853 2.284 3.72 3.613 5.449 1.251 1.624 2.617 3.128 4.582 3.923zM229.26 33.495c.871.702 1.842 1.175 2.582 1.979 1.339 1.455 2.155 3.204 3.041 4.919 1.668 3.226 3.968 5.821 7.302 7.387.488.229.999.715 1.598.064 3.299-3.588 3.08-9.986-.509-13.14-1.748-1.538-3.821-2.502-6.089-2.985-3.165-.674-4.27-.695-5.655-.265 6.028 1.58 9.113 4.438 9.006 8.567-2.78-5.518-7.323-8.134-11.276-6.526zM139.156 108.041c.728-3.312.896-6.597-.451-9.814-.803-1.919-.805-1.935-2.754-1.146-3.105 1.255-5.711 3.006-6.599 6.532-1.028 4.083 1.913 9.881 5.847 12.648-.617-1.354-1.181-2.526-1.687-3.721-.558-1.314-.63-2.709-.504-4.108.115-1.293.519-2.481 1.366-3.464-.628 6.628.632 10.048 4.833 11.915-.999-2.002-.974-3.822-.735-5.638.141-1.081.451-2.138.684-3.204zM254.539 60.366c-.599-.34-1.106-.655-1.619.135-1.355 2.09-2.533 4.218-2.811 6.783-.526 4.873 2.279 8.866 3.171 13.481 1.19-.866 1.323-1.978 1.569-3.03.674-2.869.137-5.731-.056-8.595-.182-.261-.241-.533-.067-.825l.34.595c1.646 3.683 1.769 7.501 1.019 11.396 1.61-1.59 2.401-3.669 3.16-5.702 2.41-6.449.811-11.117-4.706-14.238zM256.059 80.335c-.003.036-.008.072-.01.108.01-.028.02-.056.028-.084l-.001-.001.009-.051c-.01.009-.017.02-.026.028zM199.374 100.667l-.057-.015.042.034.015-.019z"/><path d="M200.788 99.091c.278.099.598.235.83-.038.21-.247-.083-.437-.173-.647-1.029-2.417-2.074-4.827-3.079-7.252-1.8-4.343-5.246-6.556-9.658-7.555-.466-.105-.858-.228-1.091.368-1.385 3.574-1.61 7.218.73 10.36 2.679 3.597 6.688 5.294 10.97 6.326-3.331-2.536-5.746-5.701-6.796-9.807 1.545 1.784 2.998 3.637 4.481 5.464 1.017 1.25 2.246 2.234 3.786 2.781zM184.997 51.679c-2.504 4.947-.49 9.571 1.05 14.213.393-5.45 1.547-9.466 3.05-10.251-.715 3.61-2.146 7.196-.405 10.928 1.165-2.575 2.76-4.854 4.084-7.285 2.145-3.937 1.862-7.845.093-11.794-.263-.588-.482-1.101-1.287-.818-2.738.96-5.216 2.305-6.585 5.007zM183.095 6.894c-2.756-.321-5.456-.301-7.921 1.252-3.365 2.122-6.104 8.609-5.531 13.382 1.852-3.741 4.336-6.706 8.276-8.794-1.416 1.612-2.631 2.893-3.726 4.27-1.234 1.555-2.407 3.175-2.701 5.225-.052.367-.24.846.215 1.061.381.18.643-.237.859-.455 1.134-1.133 2.465-2.017 3.826-2.8 4.611-2.651 7.229-6.471 7.296-11.881.006-.503.279-1.16-.593-1.26zM206.99 19.587c-2.181-3.355-4.887-5.973-8.955-6.789-2.311-.463-4.433-.081-6.299 1.439-1.717 1.397-2.637 3.328-3.58 5.249-.285.583.081.801.491 1.035 2.766 1.576 5.704 2.216 8.883 1.782 3.067-.419 6.159-1.249 9.269.434.013-1.155-.604-1.758-1.149-2.36-2.4-2.641-5.51-3.147-8.864-2.872-.274.187-.551.338-.85.042l.592-.343c4.062-1.781 7.367-.216 10.462 2.383zM42.044 168.437c.136-1.629.33-3.256.386-4.888.039-1.137-.046-2.289-.188-3.42-.678-5.457-4.272-7.994-9.306-8.612-.521-.064-.959-.082-1.12.617-.699 3.027-.824 6.002.612 8.877 1.716 3.431 4.896 5.68 7.122 8.767.877-3.964-1.299-7.126-2.959-10.652 2.203 1.355 3.824 4.364 5.453 9.311zM77.903 132.174c-.574-.443-1.129-.914-1.725-1.323-1.146-.788-2.305-1.545-3.548-2.183-5.219-2.679-9.446-1.795-13.073 2.724-.54.672-.637 1.101.078 1.707 1.886 1.597 3.881 2.989 6.379 3.354 4.074.597 7.83-1.107 12.155-1.571-3.59-2.854-7.477-2.415-11.217-2.702 3.635-1.202 7.259-1.006 10.951-.006zM56.862 80.845c-1.508-1.802-3.25-3.339-5.279-4.515-4.486-2.599-8.551-1.994-12.16 1.702-.61.625-.696 1.038-.105 1.729 2.588 3.031 5.783 4.618 9.821 4.377 2.232-.133 4.446-.541 6.695-.446.275.012.653.133.792-.199.163-.393-.175-.635-.436-.86-.922-.795-2.024-1.248-3.16-1.624-2.175-.721-4.442-1.004-7.048-1.326 3.984-.85 7.433-.192 10.88 1.162zM213.831 84.046c.447-.083.933-.083.877-.741-.231-2.784-.819-5.446-3.136-7.299-3.637-2.908-7.866-2.458-12.073-2.058 3.058 1.011 5.925 2.292 8.113 4.751l.847.754c-.673.067-.896-.19-1.082-.509-1.775-.753-3.318-1.975-5.171-2.57-1.331-.428-2.657-.962-4.301-.25 2.374 1.724 4.075 3.877 6.14 5.647 2.857 2.45 6.189 2.951 9.786 2.275zM292.317 208.063c-1.411.627-2.723 1.183-4.012 1.787-5.681 2.662-11.331 3.064-17.014-.046-3.004-1.644-6.091-3.132-9.122-4.728-2.738-1.442-5.582-2.053-8.886-1.178 2.601.92 4.984 1.887 7.23 3.152 2.294 1.292 4.579 2.6 6.872 3.893 2.643 1.489 5.339 2.849 8.294 3.64 6.064 1.624 12.231-1.045 16.638-6.52zM277.964 165.243c1.824 1.822 2.302 4.121 2.615 6.492.427 3.225 1.492 6.161 3.932 8.452.347.326.724.903 1.241.438 1.968-1.763 3.93-3.588 4.1-6.466.229-3.856-2.951-7.989-7.07-9.279-.439-.138-.906-.571-1.402-.089 3.551 2.539 5.103 5.868 3.894 8.346-1.108-5.223-3.902-8.298-7.31-7.894zM64.207 49.394c-2.394-3.356-6.499-3.039-9.464-2.235-.645.175-.451.648-.39 1.085.454 3.242 2.079 5.822 4.431 8.026 1.692 1.584 3.358 3.213 3.7 6.132 1.245-2.215 1.455-4.068.837-6.052-.597-1.911-1.716-3.462-3.446-4.923 3.173 1.165 3.877 2.33 5.131 8.22 1.437-2.933.959-7.788-.799-10.253zM70.849 269.286c4.446 3.33 9.479 4.961 15.075 4.812-7.257-3.078-13.478-7.63-19.154-13.004-2.302-2.178-4.769-4.174-7.672-5.67 2.958 5.428 6.781 10.138 11.751 13.862zM290.936 201.549c-6.992 1.945-13.662 1.509-19.872-2.609-3.534-2.344-7.439-3.672-11.767-4 .139.155.21.285.319.352 3.826 2.314 7.609 4.7 11.494 6.91 3.833 2.181 7.84 3.946 12.429 3.535 3.727-.335 6.843-1.941 9.439-4.604-.708.065-1.377.233-2.042.416zM203.763 60.612c1.679 1.166 3.516 1.978 5.469 2.549 4.533 1.326 8.186-.275 10.321-4.466.369-.724.19-1.047-.421-1.425-1.235-.765-2.525-1.372-3.941-1.714-4.451-1.074-7.927 1.789-11.87 2.857 3.018 1.91 6.221 1.042 9.505.72-1.919 1.417-5.691 1.954-9.063 1.479zM74.842 35.743c1.883-1.605 4.223-2.288 6.831-3.019-2.375-.518-4.449-.529-6.536-.404-3.864.23-6.502 2.098-7.547 5.821-.902 3.209-1.215 3.005 2.327 3.471 5.854.769 8.777-3.859 12.845-6.931-1.208-.413-2.117-.327-3.037-.098-2.281.566-4.337 1.631-6.346 2.81 0 .015-.004.025-.004.04-.022-.003-.041-.002-.063-.006l-.139.063c.022-.025.042-.065.069-.07.022-.004.046.003.069.007l.041-.019a.6.6 0 0 0 .026-.015c.023-.949.913-1.178 1.464-1.65zM272.407 122.846c.044 4.244 2.519 7.266 6.662 8.168.658.143 1.048.051 1.267-.607.902-2.718 1.333-5.49-.117-8.105-1.337-2.416-2.951-4.679-4.602-7.258-1.25 3.094.399 5.659.58 8.357-1.678-2.163-2.341-4.672-2.564-7.734-.806 2.643-1.248 4.869-1.226 7.179zM209.598 284.965c-1.455.334-2.613.605-3.771.867-4.551 1.021-8.999 1.072-12.917-1.902-3.479-2.643-7.496-3.238-11.648-3.311-1.677-.029-3.359.332-5.039.516l.01.347c2.149.429 4.298.866 6.449 1.282 1.721.334 3.315.969 4.862 1.803 3.159 1.705 6.215 3.645 9.824 4.357 4.71.932 8.65-.443 12.23-3.959zM169.056 94.056c-.291.744-.256 1.175.529 1.527 2.084.932 4.253 1.516 6.512 1.114 2.753-.487 5.46-1.382 8.284-.163-1.906-3.452-4.955-4.256-8.552-3.987 1.173-.869 2.485-.976 3.873-.77 1.991.296 3.627 1.25 5.02 2.667l-.005-.015c-.57-1.183-1.552-2.025-2.438-2.943-4.557-4.722-10.848-3.485-13.223 2.57zM86.905 87.561c-1.461-3.118-4.824-4.26-8.979-3.195-.908.232-1.052.634-.883 1.46.511 2.503 1.606 4.677 3.448 6.46 1.818 1.762 3.798 3.404 4.362 6.175 1.891-2.436.911-6.444-1.129-8.621-.305-.324-.846-.499-.814-1.079-.01-.002-.015-.007-.024-.011l-.024-.022-.205.024c.013-.059.026-.118.037-.176a8.5 8.5 0 0 1 .168.152l.041-.005c-.001.015.008.023.008.038 3.573 1.587 4.139 4.704 4.002 8.577 1.343-3.578 1.434-6.698-.008-9.777zM155.564 31.034c-.054-.437-.057-.885-.169-1.306-.343-1.293-.679-2.589-1.223-3.823-1.846-4.194-5.347-5.95-9.816-4.922-.498.114-.842.215-.769.831.332 2.784 1.149 5.351 3.394 7.215 2.171 1.801 4.84 2.787 7.239 4.301-.415-3.515-3.238-5.356-5.623-7.919 3.047 1.387 5.087 3.339 6.967 5.623zM233.393 92.827c-2.19 1.504-3.913 3.334-4.505 6.04-.45 2.057-.29 4.153-.464 6.227-.053.62-.465 1.303.059 2.02 2.746-2.104 3.157-5.321 4.221-8.203.182 2.004-.285 3.861-.899 5.713-.301.904-1.073 1.611-1.065 2.627a15.55 15.55 0 0 0 4.819-4.717c1.995-3.038 1.663-6.787-.776-9.486-.456-.505-.825-.609-1.39-.221zM177.19 263.834c5.703-.08 11.229.869 16.947 2.787-.542-1.466-1.304-2.225-2.156-2.909-1.636-1.313-3.562-1.95-5.588-2.292-3.507-.592-7.021-.433-10.534-.014-5.324.637-10.48 1.964-15.531 3.758 5.63-.413 11.212-1.251 16.862-1.33zM30.602 108.133c.403-1.494.105-2.936-.288-4.337-1.519-5.43-5.8-7.25-10.71-4.606-.71.382-1.004.754-.641 1.631.818 1.973 2.22 3.406 3.95 4.531 2.197 1.428 4.861 2.208 6.296 4.728.668-3.912-1.325-6.285-4.4-8.075 3.418.638 5.08 2.908 5.793 6.128zM116.152 234.561c10.762 4.623 24.592 5.78 32.023 2.674-10.682-.834-21.176-2.744-32.023-2.674zM178.842 27.108c-1.784 1.449-3.921 2.118-6.387 2.665 2.079.543 3.902.777 5.738.667 3.157-.189 5.715-1.431 6.831-4.603 1.14-3.232 1.415-3.286-2.587-3.683-4.89-.485-7.375 3.501-10.963 5.798 1.305.475 2.365.304 3.438.06 1.558-.355 2.933-1.183 4.433-1.682.062-.202.207-.295.41-.272.032.003.094.165.07.194-.122.148-.274.236-.465.102.192.502-.281.561-.518.754zM12.759 145.852c-1.007 2.152-2.687 4.086-2.212 6.767 1.51-1.639 3.283-2.917 4.755-4.513 1.965-2.13 2.468-4.679 2.136-7.465-.059-.489-.053-1.051-.796-.999-2.328.165-4.574.687-6.056 2.627-2.072 2.715-1.942 5.907-1.646 9.089.783-2.188 1.812-4.192 3.567-5.754l.761-1.013c.194.695-.129.996-.509 1.261zM125.154 44.716c-3.304-1.953-6.466-1.599-9.235 1.06-1.249 1.199-2.102 2.677-3.029 4.178 2.194-.919 4.165-2.44 6.961-2.438-2.484 1.454-5.332 2.008-6.645 4.904 2.22-.413 4.206-.753 6.18-1.158 2.935-.601 4.917-2.379 6.236-5.03.39-.784.23-1.104-.468-1.516zM247.695 76.097c0-1.581.103-2.878-.018-4.153-.45-4.708-3.232-7.414-7.478-7.439-.799-.004-1.129.184-1.198 1.05-.24 3.045.483 5.7 2.832 7.788 1.001.889 1.961 1.826 2.99 2.677.418.345.705 1.305 1.288.907.471-.322.177-1.205-.036-1.82-.162-.466-.37-.918-.561-1.375-.651-1.554-1.713-2.857-2.831-4.533 2.654 1.758 3.881 4.151 5.012 6.898zM111.787 243.871c9.194 3.255 19.409 4.541 29.332 3.964-9.374-3.453-19.575-4.845-29.332-3.964zM84.239 264.702c-7.873-3.804-15.062-8.375-22.332-13.036 3.804 7.884 14.162 13.969 22.332 13.036zM170.407 292.514c.245 0 .492-.002.737-.021 6.757-.514 13.431-.51 19.611 2.906.781.432 1.666.693 2.666.422-7.457-7.498-13.009-8.764-23.095-3.412.028.037.055.105.081.105zM202.269 47.907c-1.078-.39-2.216.807-3.179 1.584-.076.062-.142.139-.216.205-2.727 2.469-2.283 6.061-3.276 9.174 2.576-1.178 3.353-3.705 4.716-6.195-.321 2.772-1.425 4.831-2.902 6.804 1.989-.887 3.779-2.039 5.158-3.772 1.052-1.321 1.484-2.806 1.239-4.454-.188-1.273-.382-2.925-1.54-3.346zM212.201 34.637c-2.228-2.229-4.974-2.655-7.773-1.258-.658.328-.851.648-.547 1.376.854 2.045 2.069 3.79 4.196 4.576 2.071.766 4.228 1.297 6.616 2.011-1.298-2.812-3.78-3.75-6.275-5.208 2.712.451 4.691 1.595 6.793 3.416-.771-2.031-1.896-3.797-3.01-4.913zM213.933 232.441c-4.912-.567-9.409-2.263-13.892-4.013-2.258-.883-4.501-1.852-7.385-1.635.803.582 1.338.991 1.893 1.369 2.907 1.973 5.703 4.129 9.157 5.143 3.284.963 7.847.635 10.227-.864zM96.413 218.841c3.196-1.458 6.571-2.411 10.124-3.634-2.378-.3-4.489-.438-6.6-.295-6.424.433-11.043 4.275-12.083 10.316 2.948-2.3 5.334-4.917 8.559-6.387zM185.57 234.567c6.888 3.33 13.236 7.703 21.516 7.314-6.936-3.589-13.359-7.76-21.516-7.314zM248.322 38.948c-.725 1.618-1.215 2.903-1.443 4.266-.473 2.819.126 5.209 2.767 6.793 1.724 1.034 2.137.922 2.805-.987.536-1.533.655-3.082.165-4.663-.614-1.987-1.867-3.652-2.672-5.767-1.304 1.993-.158 3.942-.53 6.108-.925-1.87-1.04-3.572-1.092-5.75zM138.467 35.765c-.514.892-.525 1.477.537 1.969 1.725.799 3.459 1.166 5.334.669 2.014-.534 3.738-1.701 5.845-2.432-.739-.723-1.501-.699-2.211-.73-.74-.033-1.486.076-2.229.075-.672-.001-1.328.531-2.047.085 1.716-.885 2.604-1.046 5.795-1.17-1.57-.913-3.227-1.515-5.015-1.708-2.74-.295-4.664.913-6.009 3.242zM74.787 137.375c-1.838.396-3.631.717-5.386 1.179-2.157.566-3.538 2.074-4.515 4.016-.286.569-.315.968.294 1.366 1.936 1.264 4.626 1.324 6.468-.002 1.752-1.259 2.951-2.975 4.029-5.249-2.002 1.581-3.809 2.733-6.325 2.953 4.937-2.658 4.937-2.658 5.435-4.263zM285.414 90.561c-.013.881-.339 1.664-.53 2.476-.533 2.252-1.388 4.518-.297 6.839.479 1.019.875 2.568 1.952 2.586 1.135.019 2.048-1.244 2.725-2.3 1.659-2.596.965-6.207-1.826-9.168.115 2.147.533 4.216-.513 6.32-.264-5.951-.28-6.025-1.511-6.753zM120.085 273.325l.032-.555c-3.915-1.445-7.826-3.098-12.153-2.316-2.811.509-4.97 2.134-6.597 4.916 3.2-1.273 6.262-1.846 9.363-2.01 3.111-.164 6.237-.035 9.355-.035zM104.922 17.406c-3.047 2.142-3.771 5.458-1.992 8.646.494.89.947.896 1.739.444 3.055-1.739 5.159-6.744 4.235-10.363-2.037 1.424-2.628 3.708-3.712 6.115.159-2.293.658-4.07 1.74-6.081-.883.542-1.468.859-2.01 1.239zM69.895 250.297c6.324 6.413 12.887 8.475 18.219 5.033-6.229-1.164-12.023-3.255-18.219-5.033zM289.262 216.606c-5.691 2.505-11.075 4.645-17.206 5.44 6.358 3.595 12.008 1.785 17.206-5.44zM177.238 271.848c6.157 1.596 11.992 3.189 17.964 5.189-4.892-5.816-8.962-7.529-17.964-5.189zM45.115 150.991c.59-3.598-.953-6.193-4.184-7.232-1.022-.329-1.402-.052-1.632.968-.373 1.652-.447 3.254.34 4.786.899 1.753 2.215 3.215 3.382 4.867.612-.863.309-1.632.221-2.411-.137-1.211-.98-2.222-.94-3.472l-.022-.027-.02-.028c-.371.053-.385-.232-.447-.654l.447.654c.017-.003.023.004.04 0l.002.055c1.313 1.393 1.705 3.208 2.229 5.212.233-1.075.449-1.89.584-2.718zM55.177 85.584c-1.446-.156-2.617-.06-3.786.148-3.197.568-4.624 2.104-5.069 5.312-.142 1.025.18 1.237 1.151 1.32 4.311.369 6.143-2.901 8.614-5.565-1.377-.073-1.882.1-3.179.7-.781.361-1.323 1.156-2.25 1.228-.006.011-.016.02-.021.03l-.033.019-.02.169-.154-.074.174-.095c.003-.014.003-.027.005-.042.018 0 .033-.006.05-.007.996-1.611 2.702-2.275 4.518-3.143zM224.26 261.378c.42-.667.994-1.235 1.465-1.873.24-.327.67-.594.501-1.108-4.318 1.949-13.287 8.559-14.636 10.802 1.175-.436 2.301-1.013 3.496-1.266 4.034-.856 7.009-3.107 9.174-6.555zM30.644 95.697c-.237-1.95-.543-3.445-1.169-4.851-.856-1.93-2.373-2.962-4.491-3.11-2.113-.147-2.371.213-1.95 2.335.707 3.561 3.859 4.596 6.44 6.539.082-1.238-.531-1.969-.961-2.785-.464-.88-1.501-1.344-1.703-2.397-.014-.007-.023-.018-.036-.026-.029-.012-.06-.024-.087-.038l-.257-.035c.028-.015.064-.048.085-.04.059.021.114.048.172.075.035.005.072.011.109.015.003.018.011.032.014.049 1.598.932 2.644 2.402 3.834 4.269zM216.172 210.9c5.689.839 11.132-.481 15.859-3.716-5.656-.664-11.135.504-15.859 3.716zM116.891 290.75c5.168 3.434 10.652 4.338 16.626 4.535-2.844-1.51-5.266-3.209-7.957-4.102-2.655-.88-5.585-.204-8.669-.433zM91.013 243.229c-4.447 1.982-9.157 1.768-14.202 2.043 2.813 1.623 5.33 2.703 8.204 2.768 2.702.06 5.578-2.143 5.998-4.811zM132.906 264.307c4.896 2.688 10.31 3.17 15.637 1.715-4.888-2.529-10.277-3.182-15.637-1.715zM68.905 224.757c4.456 4.868 9.759 5.87 14.168 2.694-4.689-1.068-9.328-2.216-14.168-2.694z"/><path d="M9.802 109.625c-.358 3.668.44 7.189 1.188 10.887 1.462-1.024 2.645-2.041 3.993-2.738 1.279-.664 1.369-1.526 1.22-2.771-.353-2.949-.41-5.913-.331-8.891.076-2.825.318-5.627.628-8.43.317-.971.638-1.942.957-2.914 1.438-4.277 3.697-8.115 6.217-11.831 3.952-5.83 9.307-9.822 16.038-11.663 5.013-1.372 10.236-1.521 15.401-.759 5.955.878 5.135-.455 5.341 5.948.048 1.497.006 2.997.006 4.73 1.116-.846 1.981-1.496 2.843-2.157 3.12-2.397 3.118-2.397 2.824-6.349-.456-6.134-2.263-8.373-7.694-8.916-9.088-.911-17.913.107-25.96 4.754C23.53 73.69 16.911 80.93 13.562 90.88v.001c-.54 1.111-.866 2.295-1.178 3.485-.309.693-.538 1.403-.457 2.179-.234.871-.47 1.741-.706 2.613-.731 2.671-1.603 5.319-1.461 8.146-.059.777-.148 1.55.042 2.321zM40.104 196.944c-1.461-2.686-3.479-4.451-6.624-4.189-2.384.197-3.974 1.648-5.1 3.758 3.972-.765 7.842-.641 11.724.431zM141.221 290.45c-3.572-3.557-7.953-5.023-12.919-3.967 3.79 2.812 8.152 4.326 12.919 3.967zM226.328 242.012c4.367-1.668 8.324-3.925 10.664-8.154-5.026.781-8.538 3.607-10.664 8.154zM241.263 216.049c4.099-.245 8.228-1.303 11.353-2.936-5.182-2.277-7.606-2.16-11.353 2.936zM38.875 187.699c.432-.699-.75-1.894-1.431-2.724-2.276-2.779-5.979-2.979-8.206-.383 2.321.856 4.59 1.721 6.878 2.524.935.328 2.323 1.29 2.759.583zM99.293 267.038c-.201.43-.524.965-.109 1.387.372.378.83-.089 1.25-.108.998-.047 1.469-1.193 2.37-1.207 2.688-.041 4.476-1.708 6.751-3.36-2.269-.44-4.041-.243-5.77.207-1.843.479-3.599 1.19-4.492 3.081zM227.912 264.694c-4.673.853-7.352 3.956-9.125 8.033 5.725-2.512 7.197-3.812 9.125-8.033zM181.528 72.417c.509-2.001.561-2.675.359-3.632-.476-2.262-1.829-3.429-3.886-3.353-1.943.071-2.301.627-1.555 2.43.866 2.091 3.043 3.142 4 5.421.884-2.201.072-3.708-1.379-5.327 2.011.946 2.224 2.531 2.461 4.461zM158.249 224.692c4.098 1.328 8.144.964 11.809-1.088-4.017-1.888-8.08-1.738-11.809 1.088zM160.531 244.682c3.969 1.26 7.761.685 11.227-1.481-4.024-1.76-7.841-1.38-11.227 1.481zM119.35 215.84c3.267 2.355 6.938 2.811 10.738 1.182-3.282-2.514-7.004-2.721-10.738-1.182zM85.19 216.611c3.561-.929 5.591-3.233 6.021-6.718-4.408 1.26-5.277 2.213-6.021 6.718zM63.116 213.393c-1.604-3.46-4.401-5.277-8.049-5.752 1.306 3.749 4.057 5.633 8.049 5.752zM41.251 225.047c-.358-.835-1.576-.904-2.524-.893a3.048 3.048 0 0 0-1.805.612c-1.473 1.112-2.309 2.62-2.931 4.579 2.245-.654 4.171-1.375 5.808-2.684.581-.463 1.756-.906 1.452-1.614zM236.201 226.816c4.855-.759 5.315-.974 9.043-4.186-4.349-.755-5.867-.071-9.043 4.186zM219.19 256.566c-3.538-.421-6.191.972-7.814 4.147 3.568.366 6.274-.935 7.814-4.147zM189.319 244.384c-.711.142-.9.346-.336.909 1.2 1.197 2.523 2.055 4.336 1.847 1.177-.135 2.362-.179 4.005-.298-1.233-.722-2.145-1.203-3-1.771-1.57-1.039-3.247-1.037-5.005-.687zM150.776 208.834c-2.621-2.042-5.153-1.982-7.595.162 3.887 2.006 3.887 2.006 7.595-.162zM28.67 222.432c2.886-.985 4.831-2.885 5.659-5.88-3.656.318-5.314 2.484-5.659 5.88zM249.324 265.233c-.958-2.783-2.865-4.238-5.973-4.156 1.584 3.43 2.973 4.384 5.973 4.156zM91.18 253.489c3.948-1.383 4.678-2.142 5.1-5.201-2.983.373-4.622 2.129-5.1 5.201zM83.908 236.922c-2.238-1.705-4.612-1.669-7.172-.398 3.749 2.414 4.8 2.456 7.172.398zM252.978 233.997c1.409 2.598 3.545 3.709 6.59 3.026-2.183-3.071-3.694-3.754-6.59-3.026zM239.197 267.583c.753 2.795 2.726 3.942 5.615 4.055-1.71-3.638-2.858-4.452-5.615-4.055zM255.107 257.52c-.803-2.797-2.984-3.523-5.727-3.543 1.672 3.471 2.848 4.167 5.727 3.543zM24.943 215.717c2.306-.701 2.804-1.344 2.852-4.141-3.163.88-3.197.932-3.628 3.418-.128.731-.098.989.776.723zM92.889 21.591c1.164.222 2.314.531 3.465.819 2.043.511 2.237.421 3.367-1.651a6.993 6.993 0 0 1-.053-.022c.516-.013.553-.392.592-.768 1.199-1.71 2.434-3.389 4.107-4.683.838-.34 1.57-.824 2.15-1.526l2.512-1.462c2.478-1.453 4.736-3.309 7.547-4.151 6.395-1.916 12.869-2.3 19.448-1.09 3.264.6 6.257 1.653 9.083 3.514 5.985 3.939 10.663 9.023 14.362 15.097 3 4.924 3.139 3.752-1.133 7.286-2.583 2.136-5.315 4.089-8.113 6.226 2.069.816 4.005 1.558 5.921 2.348.53.219.839-.046 1.189-.319 3.125-2.438 6.315-4.794 9.021-7.721 2.095-2.268 2.605-4.788 1.425-7.691-1.642-4.028-3.977-7.493-7.309-10.359-2.669-2.295-4.922-5.059-7.813-7.122-4.414-3.149-9.61-4.447-14.627-6.158-1.983-.676-4.076-.858-6.171-.961-8.808-.434-16.599 2.807-24.227 6.656-.632.177-1.221.438-1.733.855-.855.164-1.587.541-2.134 1.234-.789.33-1.445.844-2.043 1.442-.753.36-1.4.846-1.853 1.562-1.208.93-2.382 1.894-3.227 3.193-.912.646-1.691 1.414-2.191 2.433-.662.596-1.329 1.187-1.691 2.032-.699.423-1.059.762.129.987zM226.747 258.145c-.052-.045-.109-.135-.153-.128-.198.032-.336.141-.35.358.286.208.361-.09.503-.23zM226.244 258.375c-.008-.006-.013-.004-.023-.012.006.012 0 .021.005.033a.196.196 0 0 1 .014-.006c-.001-.007.004-.009.004-.015zM218.346 123.605h-.045l.019.118zM230.703 107.273c.011.009.021.012.032.024 0-.017.003-.031.003-.047a.21.21 0 0 0-.022.016.076.076 0 0 1-.013.007zM230.404 107.339c-.016.016.018.079.028.12l.271-.185c-.115-.101-.211-.027-.299.065zM256.036 80.583l.013-.14c-.004.01-.009.021-.011.032-.008.035-.002.073-.002.108zM64.842 60.305l.136-.239a5.212 5.212 0 0 0-.116-.237c-.043.077-.118.154-.121.233-.004.08.064.163.101.243zM189.501 188.389c.116.045.23.105.353.127.028.006.079-.119.133-.203-.135-.049-.256-.105-.383-.13-.022-.005-.069.134-.103.206zM289.221 86.7l.034-.017-.002-.001a.04.04 0 0 0-.003-.014.067.067 0 0 1-.017-.003c-.003.012-.007.022-.012.035zM289.195 86.785c.017-.023.021-.055.025-.085l-.123.065c.034.007.09.03.098.02zM184.766 94.468l-.049-.038.005.013zM199.374 100.667l-.015.019.029.039z"/></g></svg>