<?xml version="1.0" standalone="no"?>
<!DOCTYPE svg PUBLIC "-//W3C//DTD SVG 20010904//EN"
 "http://www.w3.org/TR/2001/REC-SVG-20010904/DTD/svg10.dtd">
<svg version="1.0" xmlns="http://www.w3.org/2000/svg"
 width="400.000000pt" height="400.000000pt" viewBox="0 0 400.000000 400.000000"
 preserveAspectRatio="xMidYMid meet">
<metadata>
Created by potrace 1.11, written by Peter Selinger 2001-2013
</metadata>
<g transform="translate(0.000000,400.000000) scale(0.100000,-0.100000)"
fill="#000000" stroke="none">
<path d="M2031 3519 c-30 -5 -57 -11 -59 -14 -7 -7 41 -44 58 -44 8 0 41 6 72
13 76 19 179 13 265 -15 48 -15 136 -66 160 -91 30 -33 68 -111 92 -195 12
-40 27 -73 34 -73 7 0 22 -3 34 -6 l22 -6 -29 86 c-29 87 -66 163 -99 203 -23
27 -132 102 -186 128 -32 15 -67 19 -175 21 -74 2 -159 -1 -189 -7z"/>
<path d="M1640 3501 c-102 -34 -167 -68 -218 -118 -29 -27 -52 -54 -52 -60 0
-6 12 -13 27 -16 21 -4 31 1 47 22 36 45 63 67 131 101 58 30 75 33 148 33 67
1 92 -4 138 -25 61 -28 142 -104 177 -167 l23 -40 -55 -43 c-30 -24 -55 -45
-55 -48 -1 -3 13 -11 29 -17 28 -11 34 -8 85 33 30 25 55 50 56 57 0 7 2 21 4
32 6 30 -37 96 -104 157 -108 100 -258 139 -381 99z"/>
<path d="M2230 3462 c-46 -7 -90 -68 -90 -124 0 -21 2 -20 23 9 12 18 28 35
35 38 7 2 1 -10 -13 -29 -35 -46 -33 -62 5 -39 49 28 80 67 86 105 7 38 -3 47
-46 40z"/>
<path d="M1620 3433 c-61 -25 -88 -91 -60 -143 9 -16 14 -17 42 -8 17 6 48 28
69 49 21 21 50 46 65 55 24 16 25 19 8 25 -25 10 -63 0 -99 -24 l-30 -21 24
26 c12 15 39 31 60 36 22 6 28 11 16 12 -11 1 -30 3 -42 4 -12 1 -36 -3 -53
-11z"/>
<path d="M1783 3374 c-15 -20 -35 -43 -43 -50 -8 -7 -59 -54 -113 -104 -138
-128 -251 -197 -286 -176 -5 4 -3 29 6 62 12 47 12 58 1 65 -26 17 -48 9 -55
-18 -11 -46 -9 -151 4 -164 48 -48 229 49 394 211 36 36 91 90 122 120 31 30
57 57 57 61 0 5 -45 29 -55 29 -2 0 -17 -16 -32 -36z"/>
<path d="M2384 3399 c-12 -4 -31 -21 -43 -38 -22 -30 -22 -30 -1 -41 21 -11
170 -19 170 -9 0 10 -36 39 -48 39 -6 0 -14 5 -17 11 -4 5 10 3 32 -6 l38 -16
-25 26 c-30 30 -77 45 -106 34z"/>
<path d="M1480 3343 c-19 -25 -21 -65 -4 -82 9 -9 44 35 53 67 10 35 -1 43
-19 15 -9 -16 -10 -15 -5 5 8 29 1 28 -25 -5z"/>
<path d="M1890 3320 c-23 -14 -1 -59 43 -91 44 -32 63 -24 31 13 -19 21 -19
21 3 10 12 -7 24 -17 27 -24 3 -7 3 -2 0 12 -13 56 -71 101 -104 80z"/>
<path d="M2681 3292 c8 -22 16 -28 44 -30 93 -7 212 -74 270 -153 49 -67 61
-97 74 -191 10 -74 -3 -157 -33 -203 -20 -30 -30 -31 -84 -5 -56 27 -62 26
-49 -12 17 -44 100 -83 145 -67 17 6 33 18 37 27 19 48 46 170 49 225 6 101
-48 225 -130 297 -79 69 -234 140 -305 140 -26 0 -27 -2 -18 -28z"/>
<path d="M2195 3279 l-40 -31 32 4 c18 2 30 1 27 -4 -3 -4 -15 -8 -26 -8 -29
0 -19 -8 17 -13 37 -5 81 16 90 43 16 49 -41 54 -100 9z"/>
<path d="M2450 3258 c-79 -36 -100 -54 -100 -84 0 -30 46 -67 138 -109 115
-53 154 -64 301 -85 75 -10 156 -23 181 -29 24 -5 46 -8 48 -6 12 12 -11 55
-31 59 -12 2 -95 16 -183 30 -205 32 -303 69 -358 133 l-19 23 59 26 c73 33
68 28 54 53 -13 26 -11 26 -90 -11z"/>
<path d="M1134 3264 c-52 -13 -116 -49 -170 -94 -60 -51 -188 -239 -173 -254
2 -3 16 -2 32 1 22 4 35 20 63 74 45 85 121 157 212 200 101 49 193 48 351 -3
l63 -20 24 24 24 24 -115 32 c-127 36 -216 41 -311 16z"/>
<path d="M2803 3199 c20 -13 37 -27 37 -32 0 -4 -13 1 -29 12 -16 12 -39 21
-52 21 l-22 0 20 -22 c11 -13 30 -40 42 -61 39 -64 84 -85 97 -44 13 36 13 47
2 77 -12 35 -43 57 -94 65 l-39 6 38 -22z"/>
<path d="M1152 3194 c-50 -35 -48 -89 3 -79 11 2 25 4 31 4 17 1 80 59 72 66
-3 3 -23 -1 -44 -9 -33 -14 -36 -14 -20 -1 11 8 25 15 32 15 7 0 16 5 19 10
10 17 -68 12 -93 -6z"/>
<path d="M1860 3203 c-9 -2 -21 -13 -28 -24 -10 -16 -10 -20 3 -24 8 -3 22 -7
31 -10 8 -3 30 3 47 12 27 14 29 18 13 21 -15 3 -16 6 -5 13 12 7 12 9 -1 10
-8 0 -22 2 -30 3 -8 1 -22 1 -30 -1z"/>
<path d="M2498 3202 c-21 -4 -22 -7 -7 -34 10 -19 65 -48 90 -48 7 0 4 9 -7
22 -15 19 -16 20 -1 9 27 -21 21 6 -8 33 -24 23 -34 25 -67 18z"/>
<path d="M2138 3186 c-15 -8 -38 -22 -50 -31 l-23 -17 30 7 c48 12 85 13 91 4
3 -5 -13 -9 -35 -9 -27 0 -48 -7 -67 -23 l-27 -24 38 -1 c21 -1 52 -6 69 -11
74 -24 146 -15 146 17 0 28 -39 82 -66 92 -36 14 -74 12 -106 -4z"/>
<path d="M1694 3149 c-14 -16 -16 -23 -6 -26 7 -3 77 -27 155 -55 78 -27 156
-53 172 -57 25 -7 112 -46 123 -56 11 -10 -44 -87 -72 -102 -34 -18 -170 -129
-232 -190 -51 -51 -115 -37 -100 21 5 20 1 25 -20 29 -20 3 -33 -4 -64 -37
-90 -97 -109 -138 -89 -198 7 -22 12 -50 12 -61 -2 -22 -40 -67 -58 -67 -6 0
-34 -11 -61 -25 -54 -27 -155 -50 -188 -41 -12 3 -31 21 -44 41 -26 42 -49 44
-117 14 -26 -11 -51 -17 -55 -12 -5 4 -2 37 7 73 21 91 31 160 23 160 -3 0
-19 -13 -34 -29 -23 -24 -33 -52 -56 -162 -16 -73 -26 -137 -24 -141 10 -16
33 -7 57 23 18 24 34 32 66 36 57 7 80 0 134 -42 43 -33 45 -37 36 -65 -22
-61 -134 -139 -180 -125 -12 4 -38 22 -58 39 -74 67 -89 56 -106 -79 -4 -27
-11 -70 -16 -94 -23 -105 -30 -290 -14 -346 7 -24 9 -52 4 -69 -10 -35 -6 -42
29 -60 l28 -14 -3 76 c-6 177 -12 278 -15 296 -3 10 8 50 24 88 15 39 30 81
32 94 9 50 27 56 78 24 39 -24 54 -25 92 -5 15 8 34 15 40 15 17 0 47 35 79
91 32 56 96 115 151 139 114 49 293 39 361 -21 11 -10 45 -29 75 -42 53 -24
88 -54 165 -144 30 -34 150 -108 248 -151 4 -2 7 3 7 12 0 9 -18 28 -40 42
-49 33 -51 39 -5 20 19 -8 35 -13 35 -11 0 2 -25 20 -55 40 -30 21 -55 39 -55
41 0 4 31 -6 45 -16 6 -3 24 -12 40 -18 l30 -12 -28 25 c-30 27 -28 32 6 13
20 -10 21 -10 9 5 -8 9 -49 51 -91 94 -64 64 -87 81 -133 96 -30 9 -75 32 -99
51 -59 44 -91 60 -176 85 -76 23 -93 39 -87 81 14 99 21 108 124 158 58 28
126 85 201 168 14 16 49 37 78 47 43 15 55 25 67 52 16 38 23 44 61 51 69 13
60 63 -16 90 -25 10 -51 22 -58 27 -7 5 -38 15 -70 22 -32 8 -123 36 -203 64
-80 28 -145 51 -146 51 0 0 -9 -10 -20 -21z"/>
<path d="M2940 3120 c-1 -23 -2 -23 -10 -5 -5 11 -9 16 -10 10 -1 -5 -4 -22
-6 -37 -3 -19 2 -34 17 -49 21 -21 23 -21 35 -5 6 9 11 25 9 34 -2 9 -4 22 -4
28 -1 5 -8 19 -16 30 -14 18 -14 18 -15 -6z"/>
<path d="M1176 3094 c-47 -46 -56 -114 -27 -204 17 -54 17 -55 30 -31 8 14 14
46 15 73 0 26 3 42 7 36 4 -6 6 -38 6 -70 -2 -57 -1 -58 15 -38 9 11 24 40 33
65 23 58 13 106 -29 152 -31 34 -33 35 -50 17z"/>
<path d="M1624 3090 c-26 -10 -35 -23 -39 -56 -2 -24 0 -25 33 -19 41 8 69 24
77 44 11 28 -32 46 -71 31z"/>
<path d="M1004 3062 c-30 -4 -21 -40 22 -91 19 -21 34 -44 34 -51 0 -6 5 -8
10 -5 6 3 8 21 5 38 l-5 32 15 -25 14 -25 0 35 c1 67 -35 102 -95 92z"/>
<path d="M2315 3037 c-32 -27 -41 -87 -20 -132 13 -30 13 -30 15 -5 1 14 6 34
11 45 7 15 8 12 3 -12 -3 -18 -1 -39 3 -48 7 -13 15 -4 37 39 23 45 27 63 21
96 -8 47 -29 53 -70 17z"/>
<path d="M1720 3031 c-19 -10 -51 -22 -70 -26 -39 -8 -80 -31 -80 -45 0 -4 33
-28 73 -53 48 -29 72 -50 72 -63 1 -31 14 -44 46 -44 26 0 29 3 29 30 0 32
-15 51 -73 90 -45 31 -47 46 -4 58 133 39 138 43 86 61 -41 14 -38 14 -79 -8z"/>
<path d="M2426 3028 c-42 -69 -15 -116 35 -60 19 21 25 37 22 56 -7 33 -37 35
-57 4z m5 -71 c-10 -9 -11 -8 -5 6 3 10 9 15 12 12 3 -3 0 -11 -7 -18z"/>
<path d="M1950 2990 c-66 -14 -96 -69 -90 -165 l2 -30 10 30 c17 52 32 76 53
87 18 10 18 9 -3 -14 -27 -30 -41 -74 -32 -108 l6 -25 12 22 c7 13 34 43 61
68 50 47 77 94 68 119 -6 16 -50 24 -87 16z"/>
<path d="M2515 2961 c-22 -11 -32 -20 -22 -20 9 -1 17 -6 17 -12 0 -5 -4 -7
-10 -4 -5 3 -10 3 -10 0 0 -13 68 -34 91 -28 29 7 59 32 59 48 0 13 -42 35
-68 35 -9 0 -35 -9 -57 -19z m35 -27 c0 -8 -19 -13 -24 -6 -3 5 1 9 9 9 8 0
15 -2 15 -3z"/>
<path d="M2700 2941 c0 -6 14 -45 31 -88 119 -296 206 -562 183 -563 -5 -1
-45 -2 -89 -4 -78 -3 -159 -22 -277 -65 -64 -23 -85 -20 -94 16 -5 18 -1 28
16 40 69 48 54 178 -27 225 -36 22 -69 28 -176 33 -56 2 -91 10 -124 27 -60
29 -70 46 -52 84 17 36 65 60 144 73 59 9 144 55 188 102 25 26 89 18 135 -19
46 -36 48 -37 119 -60 l62 -20 -15 36 c-14 35 -30 52 -47 52 -5 0 -22 10 -39
21 -26 19 -107 52 -193 79 -28 9 -33 6 -101 -65 -68 -71 -120 -105 -161 -105
-10 0 -40 -9 -68 -20 -27 -10 -67 -22 -87 -25 -21 -3 -50 -17 -65 -30 -27 -24
-27 -25 -8 -37 25 -15 68 -58 81 -80 11 -20 112 -49 168 -49 22 0 52 -7 67
-15 15 -8 50 -14 78 -14 42 0 53 -4 70 -26 12 -15 21 -38 21 -52 0 -34 -61
-89 -113 -102 -98 -24 -145 -41 -162 -60 -30 -34 -7 -44 56 -26 72 22 93 20
44 -4 -41 -20 -36 -20 52 -1 53 11 48 -1 -7 -19 -47 -15 -68 -37 -26 -26 38 9
32 -3 -11 -20 l-36 -16 26 -26 c24 -24 28 -25 44 -10 10 9 32 20 48 24 17 4
63 20 103 35 81 33 174 39 220 15 70 -36 179 -65 235 -63 63 2 77 -7 77 -55 0
-15 9 -51 19 -80 10 -29 22 -66 26 -82 l6 -30 25 42 c25 41 25 43 8 72 -14 23
-16 36 -8 57 8 23 4 40 -21 96 -34 76 -25 73 -146 41 -64 -17 -66 -17 -100 2
-41 24 -47 62 -11 80 18 9 41 8 100 -3 72 -14 77 -13 90 4 16 22 11 79 -13
143 -9 25 -30 88 -45 140 -38 128 -140 405 -153 416 -11 9 -67 13 -67 5z"/>
<path d="M1428 2909 c-21 -10 -74 -44 -118 -74 -45 -30 -86 -55 -93 -55 -30 0
-203 -136 -302 -237 -26 -26 -30 -38 -27 -67 2 -20 6 -36 9 -36 3 0 46 45 123
129 41 46 294 222 364 255 43 20 80 36 82 36 2 0 25 -19 51 -42 30 -27 69 -49
103 -60 30 -9 86 -26 124 -38 68 -22 69 -22 88 -2 20 19 19 19 -46 46 -43 17
-85 26 -121 26 -50 0 -57 3 -87 37 -68 75 -96 103 -104 103 -5 -1 -26 -10 -46
-21z"/>
<path d="M2962 2903 c-6 -16 -13 -36 -16 -45 -5 -19 25 -128 36 -128 11 0 19
36 14 66 -3 16 -2 24 4 18 5 -5 10 -25 12 -44 l4 -35 17 37 c24 53 21 91 -9
127 -32 38 -49 39 -62 4z"/>
<path d="M3180 2880 c0 -22 4 -40 8 -40 16 0 100 -92 107 -118 3 -14 15 -32
26 -40 34 -23 51 -89 52 -192 0 -64 -60 -258 -97 -313 -21 -31 -22 -36 -9 -60
7 -15 15 -27 17 -27 9 0 56 90 85 163 62 156 78 279 47 364 -27 75 -157 251
-212 287 l-24 16 0 -40z"/>
<path d="M880 2888 c-103 -18 -223 -105 -272 -195 -57 -105 -90 -295 -61 -348
9 -15 11 -15 32 2 20 16 22 28 24 118 2 91 5 107 35 167 39 80 98 143 160 171
37 17 66 22 139 22 50 0 94 -3 98 -7 6 -6 9 -27 14 -92 1 -6 14 3 31 19 21 20
28 35 25 52 -3 12 -7 34 -10 48 -3 13 -15 29 -26 35 -26 15 -131 19 -189 8z"/>
<path d="M2836 2873 c-8 -20 19 -74 49 -96 21 -15 25 -15 25 -3 0 8 -4 18 -10
21 -5 3 -10 11 -10 18 0 6 7 2 15 -9 14 -18 14 -18 15 7 0 50 -69 101 -84 62z"/>
<path d="M2205 2870 c-8 -12 40 -64 52 -57 11 7 6 56 -6 58 -3 0 -14 2 -23 4
-10 2 -20 -1 -23 -5z"/>
<path d="M2461 2793 c-9 -4 -2 -10 19 -19 18 -8 31 -17 28 -19 -3 -3 -21 2
-41 10 -49 20 -47 5 5 -39 32 -28 50 -36 80 -36 34 0 38 3 38 25 0 31 -41 75
-69 75 -11 0 -25 2 -33 4 -7 3 -19 2 -27 -1z"/>
<path d="M887 2779 c-31 -8 -57 -27 -57 -40 0 -23 66 -49 118 -48 29 1 55 5
57 9 5 7 -28 23 -70 34 -11 3 -1 3 23 0 51 -5 49 7 -6 35 -26 13 -45 16 -65
10z"/>
<path d="M3171 2735 c-22 -78 -24 -120 -7 -154 24 -45 42 -49 71 -15 35 41 40
80 16 136 -27 63 -40 68 -33 13 3 -29 1 -45 -6 -45 -6 0 -9 12 -8 28 2 15 -2
39 -9 52 -13 24 -13 24 -24 -15z"/>
<path d="M777 2737 c-16 -15 -26 -31 -23 -35 2 -4 7 -28 11 -52 4 -25 13 -83
20 -130 7 -47 12 -133 10 -192 -2 -87 -6 -112 -22 -138 l-20 -32 -43 38 c-33
30 -45 36 -58 27 -10 -5 -17 -14 -17 -20 0 -19 70 -93 103 -109 32 -15 35 -15
53 3 39 39 61 130 62 253 0 63 -3 128 -6 143 -3 16 -11 63 -17 105 -7 42 -15
97 -19 122 l-6 45 -28 -28z"/>
<path d="M1455 2723 c-63 -17 -105 -84 -110 -175 -3 -56 9 -93 13 -42 3 43 38
96 75 115 11 6 4 -8 -18 -36 -30 -40 -35 -54 -35 -98 1 -47 2 -50 15 -33 8 10
16 22 17 26 2 3 30 28 63 54 67 54 115 117 115 151 0 17 -8 24 -32 30 -48 11
-80 14 -103 8z"/>
<path d="M2316 2684 c-19 -51 8 -110 64 -139 43 -22 57 -19 34 8 -42 47 -46
60 -8 25 22 -21 43 -38 46 -38 10 0 -20 82 -40 107 -9 12 -33 29 -54 37 -32
14 -37 14 -42 0z"/>
<path d="M1215 2680 c-7 -12 16 -55 55 -100 l30 -34 0 28 c0 15 -5 37 -11 48
-8 14 -8 18 0 14 6 -4 15 -21 20 -39 l9 -32 1 43 c1 30 -5 48 -19 62 -21 21
-74 27 -85 10z"/>
<path d="M925 2655 c-31 -31 -32 -45 -1 -45 33 0 71 32 63 53 -9 24 -34 21
-62 -8z"/>
<path d="M670 2640 c0 -19 44 -70 60 -70 11 0 6 58 -6 69 -5 5 -19 12 -31 16
-19 5 -23 2 -23 -15z"/>
<path d="M2491 2636 c-14 -37 -2 -109 30 -173 16 -34 32 -76 34 -94 5 -42 11
-45 29 -17 24 37 28 89 11 137 -13 37 -13 42 0 31 33 -27 41 -97 19 -154 -14
-36 11 -8 34 38 27 54 31 130 8 173 -19 39 -55 62 -112 72 -41 8 -46 7 -53
-13z"/>
<path d="M2158 2619 c-45 -44 -23 -56 92 -50 l35 2 -24 19 c-15 13 -18 20 -9
20 8 0 20 -6 28 -12 11 -10 11 -9 0 6 -13 17 -68 46 -85 46 -4 0 -20 -14 -37
-31z"/>
<path d="M3298 2614 c-5 -4 -8 -27 -8 -51 0 -31 5 -45 16 -50 24 -9 47 26 40
61 -8 37 -15 44 -26 27 -6 -11 -9 -10 -11 3 -2 10 -7 14 -11 10z"/>
<path d="M2760 2588 c-25 -27 -33 -54 -28 -99 l3 -34 17 35 c10 19 18 29 18
22 0 -7 -5 -22 -11 -33 -9 -18 -8 -19 8 -11 18 10 36 39 46 72 4 14 -18 70
-28 70 -2 0 -14 -10 -25 -22z"/>
<path d="M3004 2580 c-50 -20 -70 -96 -39 -150 l14 -25 1 36 c0 19 7 44 16 55
15 18 15 18 5 -3 -14 -29 -14 -69 1 -92 11 -17 14 -14 36 37 31 76 38 103 34
130 -4 24 -29 28 -68 12z"/>
<path d="M1179 2543 c-18 -47 -3 -90 43 -123 51 -37 82 -41 51 -7 -11 12 -23
31 -27 41 -4 11 12 -1 34 -25 41 -44 41 -44 35 -14 -13 60 -44 115 -77 135
-43 26 -46 25 -59 -7z"/>
<path d="M1782 2550 c-52 -32 -61 -80 -24 -142 22 -37 34 -36 20 3 -7 21 -7
34 0 41 7 7 10 5 8 -8 -4 -21 20 -74 33 -74 4 0 11 28 15 61 9 86 8 103 -6
122 -12 16 -15 16 -46 -3z"/>
<path d="M633 2535 c-7 -19 18 -48 63 -74 27 -16 35 -17 44 -6 13 16 5 52 -18
78 -19 22 -80 23 -89 2z m106 -69 c-3 -3 -11 5 -18 17 -13 21 -12 21 5 5 10
-10 16 -20 13 -22z"/>
<path d="M3109 2464 c-15 -19 -16 -63 -4 -179 9 -87 41 -171 94 -245 46 -65
184 -218 197 -219 6 -1 16 10 21 22 9 20 7 28 -15 53 -15 16 -58 63 -96 104
-96 105 -158 240 -151 325 2 17 3 43 4 58 1 27 3 28 34 22 17 -4 48 -16 69
-26 31 -16 38 -16 48 -4 23 27 6 47 -65 76 -80 33 -117 36 -136 13z"/>
<path d="M2692 2404 c-28 -23 -62 -71 -62 -89 0 -4 17 7 37 24 21 17 47 31 58
31 15 0 12 -4 -13 -17 -37 -18 -75 -61 -66 -75 4 -5 10 -5 17 0 7 6 40 17 75
26 63 16 107 40 116 63 8 18 -63 63 -99 63 -17 0 -44 -11 -63 -26z"/>
<path d="M680 2357 c-77 -37 -192 -147 -208 -198 -14 -45 -22 -97 -28 -199 -7
-101 9 -180 58 -280 l32 -65 12 30 c19 44 17 58 -13 101 -16 23 -30 62 -35 94
-5 30 -11 71 -14 92 -4 21 1 60 11 95 9 32 19 69 22 82 5 32 27 71 54 100 28
30 136 100 166 107 18 5 23 13 23 40 0 19 -3 34 -7 33 -5 0 -37 -14 -73 -32z"/>
<path d="M3199 2350 l-1 -35 -7 30 c-5 25 -8 27 -14 12 -21 -55 2 -118 50
-132 17 -5 22 -1 28 23 6 31 -3 61 -34 107 l-21 30 -1 -35z"/>
<path d="M3435 2310 c-16 -27 -12 -57 14 -104 16 -28 34 -70 41 -94 11 -44 15
-141 7 -177 -16 -66 -22 -84 -38 -116 -34 -69 -186 -168 -256 -169 -7 0 -23
18 -35 40 -27 47 -34 49 -50 15 -9 -21 -7 -31 18 -72 46 -73 86 -73 208 1 84
50 101 70 154 166 l47 85 0 105 c0 116 -20 205 -62 277 -28 48 -39 58 -48 43z"/>
<path d="M1056 2239 c-14 -11 -26 -25 -26 -29 0 -18 65 -43 105 -42 83 4 100
25 33 41 l-43 11 43 -4 c51 -5 54 5 7 27 -48 23 -87 21 -119 -4z"/>
<path d="M1127 2141 c-39 -20 -47 -46 -15 -55 15 -3 32 1 47 12 27 20 44 51
20 36 -11 -6 -12 -5 -2 7 17 21 -8 21 -50 0z"/>
<path d="M3363 2134 c-18 -48 -7 -102 34 -164 46 -70 59 -61 37 25 -11 43 -10
47 2 30 8 -11 17 -37 21 -58 7 -48 20 -31 26 35 6 58 -13 102 -55 128 -40 24
-57 25 -65 4z"/>
<path d="M573 2130 c-26 -11 -43 -40 -43 -75 l0 -27 20 23 20 24 -15 -30 c-18
-36 -12 -44 16 -19 30 27 49 68 42 92 -6 24 -8 25 -40 12z"/>
<path d="M1860 2106 c0 -26 35 -82 83 -136 41 -44 7 -20 -62 44 -30 28 -50 44
-46 36 16 -30 79 -106 128 -154 29 -28 40 -43 26 -36 -25 13 -139 107 -151
124 -4 6 -10 7 -14 4 -3 -4 12 -30 36 -58 23 -27 35 -47 26 -44 -9 3 -16 10
-16 14 0 4 -7 11 -16 14 -8 3 -13 2 -12 -2 24 -49 38 -67 70 -91 21 -16 73
-59 115 -97 127 -115 206 -164 262 -164 26 0 51 21 51 43 0 3 -30 22 -66 42
-36 20 -64 38 -62 40 2 2 23 -3 47 -11 24 -8 45 -13 47 -11 2 2 -30 25 -71 51
-41 26 -78 53 -82 59 -5 9 -3 9 8 1 14 -11 172 -74 186 -74 4 0 -9 11 -29 25
-20 14 -41 25 -47 25 -5 0 -13 5 -17 12 -5 8 -2 9 10 5 10 -4 29 -10 44 -14
l26 -6 -24 39 c-34 55 -47 65 -171 129 -85 45 -118 68 -146 104 -62 78 -96
111 -115 111 -12 0 -18 -8 -18 -24z"/>
<path d="M837 2093 c-22 -22 17 -109 42 -94 19 12 10 71 -15 87 -11 8 -24 11
-27 7z"/>
<path d="M620 2032 c-54 -27 -80 -74 -79 -141 1 -31 5 -69 9 -86 8 -32 9 -32
16 2 5 28 45 115 50 110 2 -2 -3 -23 -11 -47 -16 -45 -20 -110 -7 -110 6 1 45
55 83 119 25 42 31 85 19 130 -12 47 -26 51 -80 23z"/>
<path d="M759 2013 c0 -5 -2 -19 -5 -31 -5 -31 19 -82 56 -117 33 -31 39 -21
20 32 -9 26 -9 27 5 9 8 -11 15 -27 15 -35 0 -14 1 -14 10 -1 17 28 -1 103
-32 127 -18 14 -68 25 -69 16z"/>
<path d="M3135 1923 c-69 -126 -225 -353 -243 -353 -9 0 -37 6 -62 14 -68 20
-97 14 -280 -57 -44 -17 -76 -21 -163 -21 -105 1 -109 2 -190 42 -76 37 -182
121 -316 248 -33 31 -71 45 -71 26 0 -4 14 -28 32 -53 l31 -44 -47 45 c-59 55
-48 27 27 -70 55 -71 32 -58 -50 29 -50 52 -70 60 -40 16 8 -11 22 -33 32 -50
15 -25 12 -24 -19 10 l-38 40 7 -29 c10 -47 40 -81 146 -167 118 -95 136 -133
88 -185 -18 -20 -18 -22 -3 -35 15 -12 22 -8 63 37 25 28 55 54 66 58 24 9
142 -49 148 -73 9 -45 -19 -67 -172 -133 -97 -42 -128 -77 -136 -156 -1 -18
-5 -35 -7 -38 -10 -9 -136 -21 -178 -17 -56 6 -49 6 -90 4 l-35 -2 31 -28 31
-28 158 3 c107 2 161 7 166 15 4 6 1 27 -7 45 -17 41 -18 85 -1 105 22 28 116
81 210 120 51 20 108 51 128 68 51 42 79 47 127 22 54 -28 78 -30 129 -15 40
12 45 12 63 -6 11 -11 20 -23 20 -28 0 -4 -31 -49 -69 -100 l-70 -92 35 0 c38
0 31 -7 143 144 45 60 81 117 81 127 0 29 -86 43 -160 28 -79 -17 -90 -17
-105 -3 -39 40 -2 78 110 115 90 29 139 36 149 21 3 -5 7 -21 10 -36 6 -34 5
-33 36 -41 18 -4 31 -1 42 12 29 33 205 288 223 323 10 19 36 61 58 92 35 50
40 62 31 85 -15 44 -31 37 -69 -34z"/>
<path d="M3248 1881 c-13 -4 -15 -10 -8 -21 5 -8 10 -26 10 -40 0 -14 10 -42
23 -63 l23 -38 20 23 c12 13 24 31 27 41 15 42 -54 113 -95 98z m52 -54 c0
-12 0 -11 -24 28 l-17 30 20 -24 c12 -13 21 -28 21 -34z"/>
<path d="M723 1817 c-12 -6 -33 -29 -47 -50 -14 -21 -37 -50 -51 -65 -55 -58
-74 -209 -40 -313 22 -70 74 -163 119 -216 34 -39 150 -108 166 -98 3 2 5 17
2 33 -3 23 -13 34 -42 47 -48 22 -122 93 -155 148 -75 129 -63 305 29 414 36
43 60 49 95 24 38 -27 41 -27 41 7 0 52 -72 95 -117 69z"/>
<path d="M758 1702 c-29 -6 -21 -17 27 -34 46 -17 53 -15 32 13 -15 19 -36 27
-59 21z"/>
<path d="M3450 1655 c-18 -19 -23 -37 -25 -97 -1 -40 -6 -88 -10 -107 -18 -85
-75 -172 -143 -221 -34 -25 -234 -110 -257 -110 -5 0 -26 -5 -47 -10 -27 -8
-39 -18 -47 -40 -13 -38 -13 -38 116 -1 125 36 213 78 289 140 78 63 110 111
135 206 21 82 34 251 20 260 -5 2 -18 -6 -31 -20z"/>
<path d="M979 1630 c-3 -51 3 -66 35 -95 18 -16 52 -55 77 -85 24 -30 49 -61
56 -67 6 -7 20 -23 30 -36 47 -60 88 -54 77 12 -6 37 -4 45 21 71 29 30 88 54
163 64 39 6 45 3 77 -30 46 -47 48 -73 13 -140 -27 -53 -48 -65 -122 -71 -60
-4 -106 -19 -106 -34 0 -4 26 -34 58 -67 31 -33 86 -92 122 -131 36 -39 83
-83 105 -98 22 -14 58 -46 80 -70 39 -43 41 -44 74 -32 28 10 31 14 19 23 -27
20 -191 170 -230 211 -45 47 -91 121 -85 138 4 13 188 46 265 46 67 1 144 20
139 35 -2 6 -15 10 -28 9 -13 -2 -77 -5 -142 -7 -107 -3 -118 -2 -111 13 12
28 25 95 29 141 2 40 6 45 28 48 40 5 101 -33 182 -110 86 -82 178 -149 193
-139 7 4 -12 30 -48 66 -69 70 -120 137 -120 158 0 9 12 24 26 34 l26 20 -48
35 c-27 20 -60 47 -72 61 l-24 25 -46 -25 c-28 -14 -70 -26 -102 -29 -91 -7
-123 -13 -189 -34 -87 -27 -161 -70 -181 -103 l-17 -28 -79 87 c-162 180 -143
162 -145 134z"/>
<path d="M758 1603 c-9 -2 -19 -10 -21 -18 -4 -10 8 -14 49 -17 30 -1 54 0 54
4 0 7 -55 39 -62 37 -2 -1 -10 -3 -20 -6z"/>
<path d="M3060 1570 c43 -34 156 -90 186 -92 40 -3 100 10 112 25 9 10 -4 12
-58 9 -60 -4 -75 -1 -128 26 -32 17 -77 35 -98 41 l-39 10 25 -19z"/>
<path d="M669 1548 c-1 -2 -2 -17 -4 -35 -2 -27 4 -36 34 -57 20 -13 45 -26
56 -28 33 -5 217 -132 262 -181 39 -42 73 -96 73 -114 0 -5 -15 -10 -32 -11
-41 -3 -49 -11 -41 -40 5 -21 10 -23 52 -17 79 10 101 23 101 61 0 40 -77 148
-128 179 -18 11 -53 37 -78 57 -49 41 -158 108 -177 108 -7 0 -23 9 -37 21
-45 35 -80 60 -81 57z"/>
<path d="M3055 1460 c44 -23 85 -46 90 -50 6 -5 31 -14 57 -20 56 -14 103 -2
139 36 21 22 21 24 4 18 -11 -4 -26 -12 -33 -17 -30 -23 -107 -12 -186 27 -43
21 -94 40 -115 43 -31 4 -24 -1 44 -37z"/>
<path d="M2677 1455 c-27 -7 -53 -17 -59 -23 -16 -16 85 -6 119 11 23 13 24
14 6 19 -10 3 -40 0 -66 -7z"/>
<path d="M996 1451 c-7 -11 40 -51 60 -51 7 0 11 6 8 13 -7 19 -62 49 -68 38z"/>
<path d="M1887 1454 c-11 -12 3 -24 28 -24 13 0 26 4 29 9 10 15 -43 29 -57
15z"/>
<path d="M1318 1418 c-17 -15 -31 -48 -20 -48 16 0 52 32 52 46 0 17 -11 18
-32 2z"/>
<path d="M2883 1395 l-28 -25 32 5 c18 3 45 10 60 16 26 10 27 12 8 19 -32 14
-42 11 -72 -15z"/>
<path d="M685 1399 c-4 -6 -4 -13 -1 -16 8 -8 36 5 36 17 0 13 -27 13 -35 -1z"/>
<path d="M1409 1376 c-32 -8 -49 -20 -66 -45 -13 -19 -21 -36 -19 -38 2 -2 26
12 54 31 28 19 65 37 82 41 16 4 32 10 34 14 7 10 -35 9 -85 -3z"/>
<path d="M1655 1380 c-18 -7 -18 -9 8 -19 30 -12 84 -4 70 10 -12 12 -56 17
-78 9z"/>
<path d="M2992 1352 c-113 -119 -124 -139 -220 -419 l-49 -143 27 0 c15 0 32
6 38 13 5 6 36 93 68 192 l57 180 65 68 c36 37 68 67 72 67 4 0 15 -27 24 -59
17 -60 17 -60 46 -50 l28 10 -15 52 c-39 136 -75 159 -141 89z"/>
<path d="M751 1353 c-13 -11 -22 -25 -20 -32 3 -9 11 -8 28 6 13 11 22 25 20
32 -3 9 -11 8 -28 -6z"/>
<path d="M3265 1339 c-27 -10 -60 -20 -73 -21 -20 -2 -21 -4 -7 -14 9 -7 24
-11 33 -9 9 2 25 4 34 4 18 1 91 61 73 60 -5 0 -32 -9 -60 -20z"/>
<path d="M2040 1295 c-11 -13 -7 -15 28 -15 47 0 74 8 66 21 -9 15 -80 10 -94
-6z"/>
<path d="M2829 1290 c-20 -16 -21 -19 -7 -20 22 0 68 21 68 32 0 15 -38 8 -61
-12z"/>
<path d="M796 1268 c-9 -12 -14 -24 -12 -26 7 -6 66 28 66 38 0 19 -39 10 -54
-12z"/>
<path d="M904 1209 c17 -218 58 -339 146 -428 44 -45 127 -85 268 -127 47 -15
50 -12 23 32 -16 25 -28 33 -66 38 -49 8 -95 30 -160 80 -107 82 -130 141
-149 384 -5 55 -15 76 -49 93 -18 10 -19 8 -13 -72z"/>
<path d="M1140 1279 c0 -13 55 -39 82 -39 13 0 30 4 37 9 12 8 10 11 -10 15
-83 19 -109 23 -109 15z"/>
<path d="M2380 1262 c0 -19 108 -70 138 -66 6 1 24 2 39 3 35 1 25 9 -33 26
-27 7 -70 20 -96 29 -27 8 -48 12 -48 8z"/>
<path d="M2986 1192 c-10 -9 15 -32 35 -32 12 0 16 5 13 14 -6 15 -39 28 -48
18z"/>
<path d="M1663 1170 c67 -23 142 -31 205 -23 89 12 30 23 -193 38 l-70 4 58
-19z"/>
<path d="M2176 1177 c-17 -13 -16 -14 13 -26 54 -23 35 -74 -45 -114 -47 -24
-58 -42 -38 -62 15 -14 34 -16 148 -11 189 8 272 16 349 32 38 8 86 14 107 14
34 0 42 4 55 30 14 27 13 33 -5 32 -27 -1 -140 -16 -201 -28 -41 -8 -86 -14
-100 -13 -13 0 -64 -2 -114 -5 -115 -7 -127 0 -85 47 36 41 36 62 0 88 -37 26
-64 31 -84 16z"/>
<path d="M2326 1176 c41 -30 174 -74 174 -58 0 13 -107 59 -155 67 -38 7 -39
6 -19 -9z"/>
<path d="M2753 1168 c-41 -29 -52 -52 -20 -42 28 9 65 35 71 52 8 19 -16 14
-51 -10z"/>
<path d="M1221 1171 c-12 -8 -9 -11 11 -16 32 -8 57 3 37 16 -18 11 -30 11
-48 0z"/>
<path d="M2073 1103 c-7 -2 -13 -9 -13 -14 0 -15 64 -10 86 6 18 13 16 14 -21
14 -22 0 -46 -3 -52 -6z"/>
<path d="M1308 1090 c-16 -5 -39 -7 -53 -5 -14 1 -28 -1 -30 -5 -7 -11 49 -29
72 -25 10 2 21 4 25 4 4 1 12 10 18 21 12 22 9 22 -32 10z"/>
<path d="M1580 1092 c25 -16 111 -32 189 -36 80 -5 83 5 7 23 -64 16 -216 26
-196 13z"/>
<path d="M2337 1079 c6 -6 26 -13 43 -15 28 -3 31 -2 20 11 -7 8 -26 15 -43
15 -23 0 -28 -3 -20 -11z"/>
<path d="M3110 1049 c-17 -7 -34 -29 -54 -75 -37 -81 -115 -166 -182 -196 -39
-17 -69 -22 -144 -22 -111 -1 -161 12 -212 54 l-38 31 25 50 25 49 -29 0 c-37
0 -53 -16 -71 -70 -12 -36 -12 -46 1 -68 8 -15 26 -32 39 -38 159 -75 171 -79
249 -78 86 2 158 28 242 89 75 56 156 172 184 263 7 24 3 25 -35 11z"/>
<path d="M1366 1028 c-9 -12 -14 -24 -12 -26 9 -8 46 19 46 33 0 22 -17 18
-34 -7z"/>
<path d="M1150 1020 c0 -13 98 -59 118 -55 9 2 25 4 35 4 28 1 11 18 -25 24
-18 3 -54 13 -80 21 -27 8 -48 11 -48 6z"/>
<path d="M1070 1002 c0 -11 70 -76 98 -91 26 -14 102 -31 102 -22 0 3 -26 20
-58 38 -31 18 -76 44 -99 58 -24 14 -43 22 -43 17z"/>
<path d="M2950 980 c6 -11 18 -20 26 -20 22 0 12 22 -14 31 -20 8 -21 6 -12
-11z"/>
<path d="M1392 970 c-46 -21 -66 -55 -58 -99 10 -67 40 -160 61 -197 47 -80
148 -144 273 -174 99 -23 312 3 312 38 0 5 -10 14 -22 20 -18 9 -37 8 -91 -6
-69 -19 -90 -19 -187 -7 -73 10 -95 22 -172 97 -77 76 -108 136 -108 213 0 51
2 56 26 65 15 6 37 11 50 12 31 3 30 12 -2 37 -32 25 -29 25 -82 1z"/>
<path d="M1040 975 c0 -18 45 -78 87 -115 42 -37 146 -81 159 -67 3 2 -19 18
-48 34 -29 17 -78 52 -108 79 -82 72 -90 78 -90 69z"/>
<path d="M2579 952 c-12 -11 -18 -22 -13 -25 13 -7 56 14 62 31 6 18 -23 15
-49 -6z"/>
<path d="M2644 912 c-62 -41 -111 -87 -66 -63 12 6 22 9 22 6 0 -14 63 32 86
63 14 17 23 32 21 32 -2 0 -30 -17 -63 -38z"/>
<path d="M2160 913 c-41 -8 -79 -19 -85 -24 -6 -6 1 -7 20 -4 79 15 217 10
268 -10 29 -12 19 13 -12 29 -41 22 -106 25 -191 9z"/>
<path d="M2880 921 c0 -11 34 -41 48 -41 6 0 9 6 6 14 -6 15 -54 40 -54 27z"/>
<path d="M1449 881 c-13 -11 -21 -22 -17 -26 8 -9 76 15 90 32 17 21 -46 16
-73 -6z"/>
<path d="M1785 891 c-5 -9 53 -26 83 -24 58 3 58 4 27 18 -35 16 -101 19 -110
6z"/>
<path d="M2688 874 c-24 -13 -48 -42 -48 -59 0 -12 60 26 71 46 14 27 9 30
-23 13z"/>
<path d="M2842 848 c6 -16 36 -34 44 -25 9 9 -15 37 -33 37 -8 0 -13 -5 -11
-12z"/>
<path d="M1895 825 c-33 -7 -94 -25 -135 -40 -41 -15 -113 -39 -160 -53 -47
-14 -87 -27 -89 -29 -9 -6 33 -43 48 -43 9 0 75 21 146 46 192 67 297 84 375
59 26 -8 25 -20 -6 -61 -15 -19 -25 -36 -23 -38 2 -2 14 -8 26 -15 19 -10 25
-6 52 28 56 70 64 112 25 137 -33 22 -177 27 -259 9z"/>
<path d="M1483 813 c-13 -8 -23 -19 -23 -24 0 -5 10 -5 23 0 29 11 26 11 100
12 61 1 61 1 32 14 -40 19 -105 18 -132 -2z"/>
<path d="M2245 820 c-26 -5 -18 -9 55 -27 46 -12 86 -20 88 -19 2 2 -10 14
-27 25 -33 24 -70 31 -116 21z"/>
<path d="M2220 723 c0 -5 11 -10 25 -11 14 -1 51 -15 83 -31 76 -38 122 -45
166 -27 50 21 45 28 -14 20 -42 -6 -57 -2 -102 21 -51 27 -158 46 -158 28z"/>
<path d="M1851 711 l-24 -7 26 -17 c14 -9 29 -17 33 -17 4 0 26 -18 49 -39 24
-22 65 -51 92 -66 26 -14 62 -34 78 -45 17 -10 41 -21 55 -23 14 -3 53 -11 88
-18 103 -22 214 7 332 84 70 46 92 69 78 79 -27 17 -60 6 -118 -36 -78 -58
-144 -79 -245 -79 -71 0 -89 4 -156 35 -42 20 -79 41 -83 47 -10 16 -157 111
-170 110 -6 -1 -22 -4 -35 -8z"/>
<path d="M1740 670 c-14 -9 55 -40 88 -40 l27 0 -25 19 c-26 21 -73 32 -90 21z"/>
<path d="M2195 630 l-50 -17 80 -5 c47 -3 93 -12 113 -22 17 -9 32 -13 32 -8
0 17 -39 44 -82 56 -37 11 -50 11 -93 -4z"/>
<path d="M1620 626 c0 -10 68 -35 113 -41 l42 -6 -33 22 c-31 20 -122 39 -122
25z"/>
</g>
</svg>
